<svg width="732" height="656" viewBox="0 0 732 656" class="keymap" xmlns="http://www.w3.org/2000/svg" xmlns:xlink="http://www.w3.org/1999/xlink">
<style>/* inherit to force styles through use tags */
svg path {
    fill: inherit;
}

/* font and background color specifications */
svg.keymap {
    font-family: SFMono-Regular,Consolas,Liberation Mono,Menlo,monospace;
    font-size: 14px;
    font-kerning: normal;
    text-rendering: optimizeLegibility;
    fill: #24292e;
}

/* default key styling */
rect.key {
    fill: #f6f8fa;
}

rect.key, rect.combo {
    stroke: #c9cccf;
    stroke-width: 1;
}

/* default key side styling, only used is draw_key_sides is set */
rect.side {
    filter: brightness(90%);
}

/* color accent for combo boxes */
rect.combo, rect.combo-separate {
    fill: #cdf;
}

/* color accent for held keys */
rect.held, rect.combo.held {
    fill: #fdd;
}

/* color accent for ghost (optional) keys */
rect.ghost, rect.combo.ghost {
    stroke-dasharray: 4, 4;
    stroke-width: 2;
}

text {
    text-anchor: middle;
    dominant-baseline: middle;
}

/* styling for layer labels */
text.label {
    font-weight: bold;
    text-anchor: start;
    stroke: white;
    stroke-width: 4;
    paint-order: stroke;
}

/* styling for optional footer */
text.footer {
    text-anchor: end;
    dominant-baseline: auto;
    stroke: white;
    stroke-width: 4;
    paint-order: stroke;
}

/* styling for combo tap, and key non-tap label text */
text.combo, text.hold, text.shifted, text.left, text.right, text.tl, text.tr, text.bl, text.br {
    font-size: 11px;
}

text.hold, text.bl, text.br {
    text-anchor: middle;
    dominant-baseline: auto;
}

text.shifted, text.tl, text.tr {
    text-anchor: middle;
    dominant-baseline: hanging;
}

text.left, text.tl, text.bl {
    text-anchor: start;
}

text.right, text.tr, text.br {
    text-anchor: end;
}

text.layer-activator {
    text-decoration: underline;
}

/* styling for hold/shifted label text in combo box */
text.combo.hold, text.combo.shifted, text.combo.left, text.combo.right {
    font-size: 8px;
}

/* lighter symbol for transparent keys */
text.trans {
    fill: #7b7e81;
}

/* styling for combo dendrons */
path.combo {
    stroke-width: 1;
    stroke: gray;
    fill: none;
}

/* Start Tabler Icons Cleanup */
/* cannot use height/width with glyphs */
.icon-tabler > path {
    fill: inherit;
    stroke: inherit;
    stroke-width: 2;
}
/* hide tabler's default box */
.icon-tabler > path[stroke="none"][fill="none"] {
    visibility: hidden;
}
/* End Tabler Icons Cleanup */

/* Base styles for merged diagrams */
.layer-MAIN_COMBOS rect.key { opacity: 0.7; }

/* Layer activator key colors */
.held-tl rect, .layer-tl rect { fill: #F93827; }
.held-tr rect, .layer-tr rect { fill: #2563EB; }
.held-bl rect, .layer-bl rect { fill: #16A34A; }
.held-br rect, .layer-br rect { fill: #FF9D23; }

/* Text on colored layer activator keys */
.held-tl text, .layer-tl text { fill: white; }
.held-tr text, .layer-tr text { fill: white; }
.held-bl text, .layer-bl text { fill: white; }
.held-br text, .layer-br text { fill: white; }

/* Corner legend text colors, sizing, and alignment */
/* text grows inward toward key center */
text.tl { fill: #F93827; font-size: 8px; text-anchor: start; dominant-baseline: hanging; }
text.tr { fill: #2563EB; font-size: 8px; text-anchor: end; dominant-baseline: hanging; }
text.bl { fill: #16A34A; font-size: 8px; text-anchor: start; dominant-baseline: auto; }
text.br { fill: #FF9D23; font-size: 8px; text-anchor: end; dominant-baseline: auto; }
</style>
<g transform="translate(30, 0)" class="layer-stacked">
<text x="0" y="15" class="label" id="stacked">stacked</text>
<g transform="translate(0, 30)">
<g transform="translate(28, 81)" class="key keypos-0">
<rect rx="6" ry="6" x="-26" y="-26" width="52" height="52" class="key"/>
<text x="0" y="0" class="key tap">Tab</text>
<text x="-22" y="22" class="key bl">⌘</text>
<text x="22" y="22" class="key br">Y</text>
</g>
<g transform="translate(84, 46)" class="key keypos-1">
<rect rx="6" ry="6" x="-26" y="-26" width="52" height="52" class="key"/>
<text x="0" y="0" class="key tap">Q</text>
<text x="-22" y="22" class="key bl">7</text>
<text x="22" y="22" class="key br">U</text>
</g>
<g transform="translate(140, 28)" class="key keypos-2">
<rect rx="6" ry="6" x="-26" y="-26" width="52" height="52" class="key"/>
<text x="0" y="0" class="key tap">W</text>
<text x="-22" y="22" class="key bl">8</text>
<text x="22" y="22" class="key br">I</text>
</g>
<g transform="translate(196, 44)" class="key keypos-3">
<rect rx="6" ry="6" x="-26" y="-26" width="52" height="52" class="key"/>
<text x="0" y="0" class="key tap">E</text>
<text x="-22" y="22" class="key bl">9</text>
<text x="22" y="22" class="key br">O</text>
</g>
<g transform="translate(252, 52)" class="key keypos-4">
<rect rx="6" ry="6" x="-26" y="-26" width="52" height="52" class="key"/>
<text x="0" y="0" class="key tap">R</text>
<text x="-22" y="22" class="key bl">T</text>
<text x="22" y="22" class="key br">P</text>
</g>
<g transform="translate(420, 52)" class="key keypos-5">
<rect rx="6" ry="6" x="-26" y="-26" width="52" height="52" class="key"/>
<text x="0" y="0" class="key tap">Y</text>
<text x="22" y="22" class="key br">Bspc</text>
</g>
<g transform="translate(476, 44)" class="key keypos-6">
<rect rx="6" ry="6" x="-26" y="-26" width="52" height="52" class="key"/>
<text x="0" y="0" class="key tap">U</text>
<text x="22" y="22" class="key br">PgUp</text>
</g>
<g transform="translate(532, 28)" class="key keypos-7">
<rect rx="6" ry="6" x="-26" y="-26" width="52" height="52" class="key"/>
<text x="0" y="0" class="key tap">I</text>
<text x="22" y="22" class="key br">↑</text>
</g>
<g transform="translate(588, 46)" class="key keypos-8">
<rect rx="6" ry="6" x="-26" y="-26" width="52" height="52" class="key"/>
<text x="0" y="0" class="key tap">O</text>
<text x="22" y="22" class="key br">PgDn</text>
</g>
<g transform="translate(644, 81)" class="key keypos-9">
<rect rx="6" ry="6" x="-26" y="-26" width="52" height="52" class="key"/>
<text x="0" y="0" class="key tap">P</text>
<text x="22" y="22" class="key br">Del</text>
</g>
<g transform="translate(28, 137)" class="key keypos-10">
<rect rx="6" ry="6" x="-26" y="-26" width="52" height="52" class="key"/>
<text x="0" y="0" class="key tap">LSHIFT</text>
<text x="-22" y="22" class="key bl">0</text>
<text x="22" y="22" class="key br">H</text>
</g>
<g transform="translate(84, 102)" class="key keypos-11">
<rect rx="6" ry="6" x="-26" y="-26" width="52" height="52" class="key"/>
<text x="0" y="0" class="key tap">A</text>
<text x="-22" y="22" class="key bl">4</text>
<text x="22" y="22" class="key br">J</text>
</g>
<g transform="translate(140, 84)" class="key keypos-12">
<rect rx="6" ry="6" x="-26" y="-26" width="52" height="52" class="key"/>
<text x="0" y="0" class="key tap">S</text>
<text x="-22" y="22" class="key bl">5</text>
<text x="22" y="22" class="key br">K</text>
</g>
<g transform="translate(196, 100)" class="key keypos-13">
<rect rx="6" ry="6" x="-26" y="-26" width="52" height="52" class="key"/>
<text x="0" y="0" class="key tap">D</text>
<text x="-22" y="22" class="key bl">6</text>
<text x="22" y="22" class="key br">L</text>
</g>
<g transform="translate(252, 108)" class="key keypos-14">
<rect rx="6" ry="6" x="-26" y="-26" width="52" height="52" class="key"/>
<text x="0" y="0" class="key tap">F</text>
<text x="-22" y="22" class="key bl">G</text>
<text x="22" y="22" class="key br">;</text>
</g>
<g transform="translate(420, 108)" class="key keypos-15">
<rect rx="6" ry="6" x="-26" y="-26" width="52" height="52" class="key"/>
<text x="0" y="0" class="key tap">H</text>
</g>
<g transform="translate(476, 100)" class="key keypos-16">
<rect rx="6" ry="6" x="-26" y="-26" width="52" height="52" class="key"/>
<text x="0" y="0" class="key tap">J</text>
<text x="-22" y="22" class="key bl">⌘</text>
<text x="22" y="22" class="key br">←</text>
</g>
<g transform="translate(532, 84)" class="key keypos-17">
<rect rx="6" ry="6" x="-26" y="-26" width="52" height="52" class="key"/>
<text x="0" y="0" class="key tap">K</text>
<text x="-22" y="22" class="key bl">⌥</text>
<text x="22" y="22" class="key br">↓</text>
</g>
<g transform="translate(588, 102)" class="key keypos-18">
<rect rx="6" ry="6" x="-26" y="-26" width="52" height="52" class="key"/>
<text x="0" y="0" class="key tap">L</text>
<text x="-22" y="22" class="key bl">⌃</text>
<text x="22" y="22" class="key br">→</text>
</g>
<g transform="translate(644, 137)" class="key keypos-19">
<rect rx="6" ry="6" x="-26" y="-26" width="52" height="52" class="key"/>
<text x="0" y="0" class="key tap">;</text>
<text x="-22" y="22" class="key bl">⇧</text>
<text x="22" y="22" class="key br"><tspan style="font-size: 88%">KP ENTER</tspan></text>
</g>
<g transform="translate(28, 193)" class="key keypos-20">
<rect rx="6" ry="6" x="-26" y="-26" width="52" height="52" class="key"/>
<text x="0" y="0" class="key tap">⌃</text>
<text x="-22" y="22" class="key bl">Esc</text>
<text x="22" y="22" class="key br">N</text>
</g>
<g transform="translate(84, 158)" class="key keypos-21">
<rect rx="6" ry="6" x="-26" y="-26" width="52" height="52" class="key"/>
<text x="0" y="0" class="key tap">Z</text>
<text x="-22" y="22" class="key bl">1</text>
<text x="22" y="22" class="key br">M</text>
</g>
<g transform="translate(140, 140)" class="key keypos-22">
<rect rx="6" ry="6" x="-26" y="-26" width="52" height="52" class="key"/>
<text x="0" y="0" class="key tap">X</text>
<text x="-22" y="22" class="key bl">2</text>
<text x="22" y="22" class="key br">CMMA</text>
</g>
<g transform="translate(196, 156)" class="key keypos-23">
<rect rx="6" ry="6" x="-26" y="-26" width="52" height="52" class="key"/>
<text x="0" y="0" class="key tap">C</text>
<text x="-22" y="22" class="key bl">3</text>
<text x="22" y="22" class="key br">.</text>
</g>
<g transform="translate(252, 164)" class="key keypos-24">
<rect rx="6" ry="6" x="-26" y="-26" width="52" height="52" class="key"/>
<text x="0" y="0" class="key tap">V</text>
<text x="-22" y="22" class="key bl">B</text>
<text x="22" y="22" class="key br">/</text>
</g>
<g transform="translate(420, 164)" class="key keypos-25">
<rect rx="6" ry="6" x="-26" y="-26" width="52" height="52" class="key"/>
<text x="0" y="0" class="key tap">N</text>
<text x="22" y="22" class="key br">INSERT</text>
</g>
<g transform="translate(476, 156)" class="key keypos-26">
<rect rx="6" ry="6" x="-26" y="-26" width="52" height="52" class="key"/>
<text x="0" y="0" class="key tap">M</text>
<text x="-22" y="22" class="key bl">&#x27;</text>
<text x="22" y="22" class="key br">Home</text>
</g>
<g transform="translate(532, 140)" class="key keypos-27">
<rect rx="6" ry="6" x="-26" y="-26" width="52" height="52" class="key"/>
<text x="0" y="0" class="key tap">CMMA</text>
<text x="-22" y="22" class="key bl">`</text>
<text x="22" y="22" class="key br">Tab</text>
</g>
<g transform="translate(588, 158)" class="key keypos-28">
<rect rx="6" ry="6" x="-26" y="-26" width="52" height="52" class="key"/>
<text x="0" y="0" class="key tap">.</text>
<text x="22" y="22" class="key br">End</text>
</g>
<g transform="translate(644, 193)" class="key keypos-29">
<rect rx="6" ry="6" x="-26" y="-26" width="52" height="52" class="key"/>
<text x="0" y="0" class="key tap">/</text>
<text x="-22" y="22" class="key bl">CAPS</text>
</g>
<g transform="translate(221, 221) rotate(15.0)" class="key keypos-30">
<rect rx="6" ry="6" x="-26" y="-26" width="52" height="52" class="key"/>
<text x="0" y="0" class="key tap">gam_ra</text>
<text x="0" y="22" class="key hold">⌥</text>
</g>
<g transform="translate(279, 245) rotate(30.0)" class="key keypos-31">
<rect rx="6" ry="6" x="-26" y="-26" width="52" height="52" class="key"/>
<text x="0" y="0" class="key tap">Spc</text>
<text x="-22" y="22" class="key bl">Spc</text>
<text x="22" y="22" class="key br">Spc</text>
</g>
<g transform="translate(393, 245) rotate(-30.0)" class="key layer-tl keypos-32">
<rect rx="6" ry="6" x="-26" y="-26" width="52" height="52" class="key layer-tl"/>
<text x="0" y="0" class="key layer-tl tap">Fun</text>
</g>
<g transform="translate(451, 221) rotate(-15.0)" class="key keypos-33">
<rect rx="6" ry="6" x="-26" y="-26" width="52" height="52" class="key"/>
<text x="0" y="0" class="key tap">gam_ra</text>
<text x="0" y="22" class="key hold">sticky</text>
</g>
</g>
</g>
<g transform="translate(30, 313)" class="layer-stacked_combos">
<text x="0" y="15" class="label" id="stacked_combos">stacked_combos</text>
<g transform="translate(0, 30)">
<g transform="translate(28, 81)" class="key keypos-0">
<rect rx="6" ry="6" x="-26" y="-26" width="52" height="52" class="key"/>
</g>
<g transform="translate(84, 46)" class="key keypos-1">
<rect rx="6" ry="6" x="-26" y="-26" width="52" height="52" class="key"/>
</g>
<g transform="translate(140, 28)" class="key keypos-2">
<rect rx="6" ry="6" x="-26" y="-26" width="52" height="52" class="key"/>
</g>
<g transform="translate(196, 44)" class="key keypos-3">
<rect rx="6" ry="6" x="-26" y="-26" width="52" height="52" class="key"/>
</g>
<g transform="translate(252, 52)" class="key keypos-4">
<rect rx="6" ry="6" x="-26" y="-26" width="52" height="52" class="key"/>
</g>
<g transform="translate(420, 52)" class="key keypos-5">
<rect rx="6" ry="6" x="-26" y="-26" width="52" height="52" class="key"/>
</g>
<g transform="translate(476, 44)" class="key keypos-6">
<rect rx="6" ry="6" x="-26" y="-26" width="52" height="52" class="key"/>
</g>
<g transform="translate(532, 28)" class="key keypos-7">
<rect rx="6" ry="6" x="-26" y="-26" width="52" height="52" class="key"/>
</g>
<g transform="translate(588, 46)" class="key keypos-8">
<rect rx="6" ry="6" x="-26" y="-26" width="52" height="52" class="key"/>
</g>
<g transform="translate(644, 81)" class="key keypos-9">
<rect rx="6" ry="6" x="-26" y="-26" width="52" height="52" class="key"/>
</g>
<g transform="translate(28, 137)" class="key keypos-10">
<rect rx="6" ry="6" x="-26" y="-26" width="52" height="52" class="key"/>
</g>
<g transform="translate(84, 102)" class="key keypos-11">
<rect rx="6" ry="6" x="-26" y="-26" width="52" height="52" class="key"/>
</g>
<g transform="translate(140, 84)" class="key keypos-12">
<rect rx="6" ry="6" x="-26" y="-26" width="52" height="52" class="key"/>
</g>
<g transform="translate(196, 100)" class="key keypos-13">
<rect rx="6" ry="6" x="-26" y="-26" width="52" height="52" class="key"/>
</g>
<g transform="translate(252, 108)" class="key keypos-14">
<rect rx="6" ry="6" x="-26" y="-26" width="52" height="52" class="key"/>
</g>
<g transform="translate(420, 108)" class="key keypos-15">
<rect rx="6" ry="6" x="-26" y="-26" width="52" height="52" class="key"/>
</g>
<g transform="translate(476, 100)" class="key keypos-16">
<rect rx="6" ry="6" x="-26" y="-26" width="52" height="52" class="key"/>
</g>
<g transform="translate(532, 84)" class="key keypos-17">
<rect rx="6" ry="6" x="-26" y="-26" width="52" height="52" class="key"/>
</g>
<g transform="translate(588, 102)" class="key keypos-18">
<rect rx="6" ry="6" x="-26" y="-26" width="52" height="52" class="key"/>
</g>
<g transform="translate(644, 137)" class="key keypos-19">
<rect rx="6" ry="6" x="-26" y="-26" width="52" height="52" class="key"/>
</g>
<g transform="translate(28, 193)" class="key keypos-20">
<rect rx="6" ry="6" x="-26" y="-26" width="52" height="52" class="key"/>
</g>
<g transform="translate(84, 158)" class="key keypos-21">
<rect rx="6" ry="6" x="-26" y="-26" width="52" height="52" class="key"/>
</g>
<g transform="translate(140, 140)" class="key keypos-22">
<rect rx="6" ry="6" x="-26" y="-26" width="52" height="52" class="key"/>
</g>
<g transform="translate(196, 156)" class="key keypos-23">
<rect rx="6" ry="6" x="-26" y="-26" width="52" height="52" class="key"/>
</g>
<g transform="translate(252, 164)" class="key keypos-24">
<rect rx="6" ry="6" x="-26" y="-26" width="52" height="52" class="key"/>
</g>
<g transform="translate(420, 164)" class="key keypos-25">
<rect rx="6" ry="6" x="-26" y="-26" width="52" height="52" class="key"/>
</g>
<g transform="translate(476, 156)" class="key keypos-26">
<rect rx="6" ry="6" x="-26" y="-26" width="52" height="52" class="key"/>
</g>
<g transform="translate(532, 140)" class="key keypos-27">
<rect rx="6" ry="6" x="-26" y="-26" width="52" height="52" class="key"/>
</g>
<g transform="translate(588, 158)" class="key keypos-28">
<rect rx="6" ry="6" x="-26" y="-26" width="52" height="52" class="key"/>
</g>
<g transform="translate(644, 193)" class="key keypos-29">
<rect rx="6" ry="6" x="-26" y="-26" width="52" height="52" class="key"/>
</g>
<g transform="translate(221, 221) rotate(15.0)" class="key keypos-30">
<rect rx="6" ry="6" x="-26" y="-26" width="52" height="52" class="key"/>
</g>
<g transform="translate(279, 245) rotate(30.0)" class="key keypos-31">
<rect rx="6" ry="6" x="-26" y="-26" width="52" height="52" class="key"/>
</g>
<g transform="translate(393, 245) rotate(-30.0)" class="key keypos-32">
<rect rx="6" ry="6" x="-26" y="-26" width="52" height="52" class="key"/>
</g>
<g transform="translate(451, 221) rotate(-15.0)" class="key keypos-33">
<rect rx="6" ry="6" x="-26" y="-26" width="52" height="52" class="key"/>
</g>
<g class="combo combopos-0">
<rect rx="6" ry="6" x="14" y="96" width="28" height="26" class="combo"/>
<text x="28" y="109" class="combo tap">1</text>
</g>
<g class="combo combopos-1">
<rect rx="6" ry="6" x="70" y="61" width="28" height="26" class="combo"/>
<text x="84" y="74" class="combo tap">2</text>
</g>
<g class="combo combopos-2">
<rect rx="6" ry="6" x="126" y="43" width="28" height="26" class="combo"/>
<text x="140" y="56" class="combo tap">3</text>
</g>
<g class="combo combopos-3">
<rect rx="6" ry="6" x="182" y="59" width="28" height="26" class="combo"/>
<text x="196" y="72" class="combo tap">4</text>
</g>
<g class="combo combopos-4">
<rect rx="6" ry="6" x="238" y="67" width="28" height="26" class="combo"/>
<text x="252" y="80" class="combo tap">5</text>
</g>
<g class="combo combopos-5">
<rect rx="6" ry="6" x="14" y="152" width="28" height="26" class="combo"/>
<text x="28" y="165" class="combo tap">6</text>
</g>
<g class="combo combopos-6">
<rect rx="6" ry="6" x="70" y="117" width="28" height="26" class="combo"/>
<text x="84" y="130" class="combo tap">7</text>
</g>
<g class="combo combopos-7">
<rect rx="6" ry="6" x="126" y="99" width="28" height="26" class="combo"/>
<text x="140" y="112" class="combo tap">8</text>
</g>
<g class="combo combopos-8">
<rect rx="6" ry="6" x="182" y="115" width="28" height="26" class="combo"/>
<text x="196" y="128" class="combo tap">9</text>
</g>
<g class="combo combopos-9">
<rect rx="6" ry="6" x="238" y="123" width="28" height="26" class="combo"/>
<text x="252" y="136" class="combo tap">0</text>
</g>
<g class="combo combopos-10">
<rect rx="6" ry="6" x="210" y="35" width="28" height="26" class="combo"/>
<text x="224" y="48" class="combo tap">T</text>
</g>
<g class="combo combopos-11">
<rect rx="6" ry="6" x="210" y="91" width="28" height="26" class="combo"/>
<text x="224" y="104" class="combo tap">G</text>
</g>
<g class="combo combopos-12">
<rect rx="6" ry="6" x="210" y="147" width="28" height="26" class="combo"/>
<text x="224" y="160" class="combo tap">B</text>
</g>
<g class="combo combopos-13">
<rect rx="6" ry="6" x="42" y="51" width="28" height="26" class="combo"/>
<text x="56" y="64" class="combo tap">Esc</text>
</g>
<g class="combo combopos-14">
<rect rx="6" ry="6" x="42" y="163" width="28" height="26" class="combo"/>
<text x="56" y="176" class="combo tap">⌘</text>
</g>
<g class="combo layer-tr combopos-15">
<rect rx="6" ry="6" x="434" y="35" width="28" height="26" class="combo layer-tr"/>
<text x="448" y="48" class="combo layer-tr tap">Sys</text>
</g>
</g>
</g>
<text x="702.0" y="641.0" class="footer">hollowhemlock/zmk-config</text></svg>
