<svg width="732" height="395" viewBox="0 0 732 395" class="keymap" xmlns="http://www.w3.org/2000/svg" xmlns:xlink="http://www.w3.org/1999/xlink">
<defs>/* start glyphs */
<svg id="mdi:play-pause">
<svg xmlns="http://www.w3.org/2000/svg" id="mdi-play-pause" viewBox="0 0 24 24"><path d="M3,5V19L11,12M13,19H16V5H13M18,5V19H21V5" /></svg>
</svg>
<svg id="mdi:skip-backward">
<svg xmlns="http://www.w3.org/2000/svg" id="mdi-skip-backward" viewBox="0 0 24 24"><path d="M20,5V19L13,12M6,5V19H4V5M13,5V19L6,12" /></svg>
</svg>
<svg id="mdi:skip-forward">
<svg xmlns="http://www.w3.org/2000/svg" id="mdi-skip-forward" viewBox="0 0 24 24"><path d="M4,5V19L11,12M18,5V19H20V5M11,5V19L18,12" /></svg>
</svg>
<svg id="mdi:volume-high">
<svg xmlns="http://www.w3.org/2000/svg" id="mdi-volume-high" viewBox="0 0 24 24"><path d="M14,3.23V5.29C16.89,6.15 19,8.83 19,12C19,15.17 16.89,17.84 14,18.7V20.77C18,19.86 21,16.28 21,12C21,7.72 18,4.14 14,3.23M16.5,12C16.5,10.23 15.5,8.71 14,7.97V16C15.5,15.29 16.5,13.76 16.5,12M3,9V15H7L12,20V4L7,9H3Z" /></svg>
</svg>
<svg id="mdi:volume-medium">
<svg xmlns="http://www.w3.org/2000/svg" id="mdi-volume-medium" viewBox="0 0 24 24"><path d="M5,9V15H9L14,20V4L9,9M18.5,12C18.5,10.23 17.5,8.71 16,7.97V16C17.5,15.29 18.5,13.76 18.5,12Z" /></svg>
</svg>
<svg id="mdi:volume-off">
<svg xmlns="http://www.w3.org/2000/svg" id="mdi-volume-off" viewBox="0 0 24 24"><path d="M12,4L9.91,6.09L12,8.18M4.27,3L3,4.27L7.73,9H3V15H7L12,20V13.27L16.25,17.53C15.58,18.04 14.83,18.46 14,18.7V20.77C15.38,20.45 16.63,19.82 17.68,18.96L19.73,21L21,19.73L12,10.73M19,12C19,12.94 18.8,13.82 18.46,14.64L19.97,16.15C20.62,14.91 21,13.5 21,12C21,7.72 18,4.14 14,3.23V5.29C16.89,6.15 19,8.83 19,12M16.5,12C16.5,10.23 15.5,8.71 14,7.97V10.18L16.45,12.63C16.5,12.43 16.5,12.21 16.5,12Z" /></svg>
</svg>
</defs>/* end glyphs */
<style>/* inherit to force styles through use tags */
svg path {
    fill: inherit;
}

/* font and background color specifications */
svg.keymap {
    font-family: SFMono-Regular,Consolas,Liberation Mono,Menlo,monospace;
    font-size: 14px;
    font-kerning: normal;
    text-rendering: optimizeLegibility;
    fill: #24292e;
}

/* default key styling */
rect.key {
    fill: #f6f8fa;
}

rect.key, rect.combo {
    stroke: #c9cccf;
    stroke-width: 1;
}

/* default key side styling, only used is draw_key_sides is set */
rect.side {
    filter: brightness(90%);
}

/* color accent for combo boxes */
rect.combo, rect.combo-separate {
    fill: #cdf;
}

/* color accent for held keys */
rect.held, rect.combo.held {
    fill: #fdd;
}

/* color accent for ghost (optional) keys */
rect.ghost, rect.combo.ghost {
    stroke-dasharray: 4, 4;
    stroke-width: 2;
}

text {
    text-anchor: middle;
    dominant-baseline: middle;
}

/* styling for layer labels */
text.label {
    font-weight: bold;
    text-anchor: start;
    stroke: white;
    stroke-width: 4;
    paint-order: stroke;
}

/* styling for optional footer */
text.footer {
    text-anchor: end;
    dominant-baseline: auto;
    stroke: white;
    stroke-width: 4;
    paint-order: stroke;
}

/* styling for combo tap, and key non-tap label text */
text.combo, text.hold, text.shifted, text.left, text.right {
    font-size: 11px;
}

text.hold {
    text-anchor: middle;
    dominant-baseline: auto;
}

text.shifted {
    text-anchor: middle;
    dominant-baseline: hanging;
}

text.left {
    text-anchor: start;
}

text.right {
    text-anchor: end;
}

text.layer-activator {
    text-decoration: underline;
}

/* styling for hold/shifted label text in combo box */
text.combo.hold, text.combo.shifted, text.combo.left, text.combo.right {
    font-size: 8px;
}

/* lighter symbol for transparent keys */
text.trans {
    fill: #7b7e81;
}

/* styling for combo dendrons */
path.combo {
    stroke-width: 1;
    stroke: gray;
    fill: none;
}

/* Start Tabler Icons Cleanup */
/* cannot use height/width with glyphs */
.icon-tabler > path {
    fill: inherit;
    stroke: inherit;
    stroke-width: 2;
}
/* hide tabler's default box */
.icon-tabler > path[stroke="none"][fill="none"] {
    visibility: hidden;
}
/* End Tabler Icons Cleanup */

/* Corner positioning for merged layer view */
text.shifted {
    text-anchor: start;
    dominant-baseline: hanging;
}
text.hold {
    text-anchor: end;
    dominant-baseline: hanging;
}
text.left {
    text-anchor: start;
    dominant-baseline: auto;
}
text.right {
    text-anchor: end;
    dominant-baseline: auto;
}
</style>
<g transform="translate(30, 0)" class="layer-merged">
<text x="0" y="28" class="label" id="merged">merged:</text>
<g transform="translate(0, 56)">
<g transform="translate(28, 81)" class="key keypos-0">
<rect rx="6" ry="6" x="-26" y="-26" width="52" height="52" class="key"/>
<text x="0" y="0" class="key tap">Q</text>
<text x="-22" y="-18" class="key shifted">Tab</text>
<text x="-22" y="20" class="key left">F12</text>
<text x="22" y="20" class="key right"><tspan style="font-size: 88%">l_qwerty</tspan></text>
</g>
<g transform="translate(84, 46)" class="key keypos-1">
<rect rx="6" ry="6" x="-26" y="-26" width="52" height="52" class="key"/>
<text x="0" y="0" class="key tap">W</text>
<text x="22" y="-18" class="key hold">7</text>
<text x="-22" y="20" class="key left">F7</text>
<text x="22" y="20" class="key right">l_gam</text>
</g>
<g transform="translate(140, 28)" class="key keypos-2">
<rect rx="6" ry="6" x="-26" y="-26" width="52" height="52" class="key"/>
<text x="0" y="0" class="key tap">F</text>
<text x="22" y="-18" class="key hold">8</text>
<text x="-22" y="20" class="key left">F8</text>
<text x="22" y="20" class="key right"><tspan style="font-size: 64%">l_colemak_…</tspan></text>
</g>
<g transform="translate(196, 44)" class="key keypos-3">
<rect rx="6" ry="6" x="-26" y="-26" width="52" height="52" class="key"/>
<text x="0" y="0" class="key tap">P</text>
<text x="22" y="-18" class="key hold">9</text>
<text x="-22" y="20" class="key left">F9</text>
<text x="22" y="20" class="key right">OUT BLE</text>
</g>
<g transform="translate(252, 52)" class="key keypos-4">
<rect rx="6" ry="6" x="-26" y="-26" width="52" height="52" class="key"/>
<text x="0" y="0" class="key tap">B</text>
<text x="-22" y="20" class="key left">PSCRN</text>
<text x="22" y="20" class="key right">OUT USB</text>
</g>
<g transform="translate(420, 52)" class="key keypos-5">
<rect rx="6" ry="6" x="-26" y="-26" width="52" height="52" class="key"/>
<text x="0" y="0" class="key tap">J</text>
<text x="-22" y="-18" class="key shifted">PgUp</text>
</g>
<g transform="translate(476, 44)" class="key keypos-6">
<rect rx="6" ry="6" x="-26" y="-26" width="52" height="52" class="key"/>
<text x="0" y="0" class="key tap">L</text>
<text x="-22" y="-18" class="key shifted">Bspc</text>
</g>
<g transform="translate(532, 28)" class="key keypos-7">
<rect rx="6" ry="6" x="-26" y="-26" width="52" height="52" class="key"/>
<text x="0" y="0" class="key tap">U</text>
<text x="-22" y="-18" class="key shifted">↑</text>
</g>
<g transform="translate(588, 46)" class="key keypos-8">
<rect rx="6" ry="6" x="-26" y="-26" width="52" height="52" class="key"/>
<text x="0" y="0" class="key tap">Y</text>
<text x="-22" y="-18" class="key shifted">Del</text>
</g>
<g transform="translate(644, 81)" class="key keypos-9">
<rect rx="6" ry="6" x="-26" y="-26" width="52" height="52" class="key"/>
<text x="0" y="0" class="key tap">&#x27;</text>
</g>
<g transform="translate(28, 137)" class="key keypos-10">
<rect rx="6" ry="6" x="-26" y="-26" width="52" height="52" class="key"/>
<text x="0" y="0" class="key tap">A</text>
<text x="22" y="-18" class="key hold">0</text>
<text x="-22" y="-18" class="key shifted">Shift</text>
<text x="-22" y="20" class="key left">F11</text>
<text x="22" y="20" class="key right">BT 1</text>
</g>
<g transform="translate(84, 102)" class="key keypos-11">
<rect rx="6" ry="6" x="-26" y="-26" width="52" height="52" class="key"/>
<text x="0" y="0" class="key tap">R</text>
<text x="22" y="-18" class="key hold">4</text>
<text x="-22" y="-18" class="key shifted">Ctrl</text>
<text x="-22" y="20" class="key left">F4</text>
<text x="22" y="20" class="key right">BT 2</text>
</g>
<g transform="translate(140, 84)" class="key keypos-12">
<rect rx="6" ry="6" x="-26" y="-26" width="52" height="52" class="key"/>
<text x="0" y="0" class="key tap">S</text>
<text x="22" y="-18" class="key hold">5</text>
<text x="-22" y="-18" class="key shifted">Alt</text>
<text x="-22" y="20" class="key left">F5</text>
<text x="22" y="20" class="key right">BT 3</text>
</g>
<g transform="translate(196, 100)" class="key keypos-13">
<rect rx="6" ry="6" x="-26" y="-26" width="52" height="52" class="key"/>
<text x="0" y="0" class="key tap">T</text>
<text x="22" y="-18" class="key hold">6</text>
<text x="-22" y="-18" class="key shifted">Gui</text>
<text x="-22" y="20" class="key left">F6</text>
<text x="22" y="20" class="key right">BT 4</text>
</g>
<g transform="translate(252, 108)" class="key keypos-14">
<rect rx="6" ry="6" x="-26" y="-26" width="52" height="52" class="key"/>
<text x="0" y="0" class="key tap">G</text>
<text x="-22" y="-18" class="key shifted">Tab</text>
<text x="-22" y="20" class="key left">SLCK</text>
<text x="22" y="20" class="key right">BT</text>
</g>
<g transform="translate(420, 108)" class="key keypos-15">
<rect rx="6" ry="6" x="-26" y="-26" width="52" height="52" class="key"/>
<text x="0" y="0" class="key tap">M</text>
<text x="-22" y="-18" class="key shifted">PgDn</text>
<use href="#mdi:play-pause" xlink:href="#mdi:play-pause" x="-24" y="-5" height="10" width="10.0" class="key left glyph mdi:play-pause"/>
</g>
<g transform="translate(476, 100)" class="key keypos-16">
<rect rx="6" ry="6" x="-26" y="-26" width="52" height="52" class="key"/>
<text x="0" y="0" class="key tap">N</text>
<text x="-22" y="-18" class="key shifted">←</text>
<text x="-22" y="20" class="key left">Gui</text>
</g>
<g transform="translate(532, 84)" class="key keypos-17">
<rect rx="6" ry="6" x="-26" y="-26" width="52" height="52" class="key"/>
<text x="0" y="0" class="key tap">E</text>
<text x="22" y="-18" class="key hold">APP</text>
<text x="-22" y="-18" class="key shifted">↓</text>
<text x="-22" y="20" class="key left">Alt</text>
</g>
<g transform="translate(588, 102)" class="key keypos-18">
<rect rx="6" ry="6" x="-26" y="-26" width="52" height="52" class="key"/>
<text x="0" y="0" class="key tap">I</text>
<text x="22" y="-18" class="key hold"><tspan style="font-size: 64%">&amp;sq_Ck_sti…</tspan></text>
<text x="-22" y="-18" class="key shifted">→</text>
<text x="-22" y="20" class="key left">Ctrl</text>
</g>
<g transform="translate(644, 137)" class="key keypos-19">
<rect rx="6" ry="6" x="-26" y="-26" width="52" height="52" class="key"/>
<text x="0" y="0" class="key tap">O</text>
<text x="22" y="-18" class="key hold">;</text>
<text x="-22" y="-18" class="key shifted">Enter</text>
<text x="-22" y="20" class="key left">Shift</text>
</g>
<g transform="translate(28, 193)" class="key keypos-20">
<rect rx="6" ry="6" x="-26" y="-26" width="52" height="52" class="key"/>
<text x="0" y="0" class="key tap">Z</text>
<text x="-22" y="20" class="key left">F10</text>
<text x="22" y="20" class="key right">BT CLR</text>
</g>
<g transform="translate(84, 158)" class="key keypos-21">
<rect rx="6" ry="6" x="-26" y="-26" width="52" height="52" class="key"/>
<text x="0" y="0" class="key tap">X</text>
<text x="22" y="-18" class="key hold">1</text>
<text x="-22" y="20" class="key left">F1</text>
</g>
<g transform="translate(140, 140)" class="key keypos-22">
<rect rx="6" ry="6" x="-26" y="-26" width="52" height="52" class="key"/>
<text x="0" y="0" class="key tap">C</text>
<text x="22" y="-18" class="key hold">2</text>
<text x="-22" y="20" class="key left">F2</text>
</g>
<g transform="translate(196, 156)" class="key keypos-23">
<rect rx="6" ry="6" x="-26" y="-26" width="52" height="52" class="key"/>
<text x="0" y="0" class="key tap">D</text>
<text x="22" y="-18" class="key hold">3</text>
<text x="-22" y="-18" class="key shifted">Gui</text>
<text x="-22" y="20" class="key left">F3</text>
<text x="22" y="20" class="key right">Reset</text>
</g>
<g transform="translate(252, 164)" class="key keypos-24">
<rect rx="6" ry="6" x="-26" y="-26" width="52" height="52" class="key"/>
<text x="0" y="0" class="key tap">V</text>
<text x="-22" y="20" class="key left"><tspan style="font-size: 64%">PAUSE BREAK</tspan></text>
<text x="22" y="20" class="key right">Boot</text>
</g>
<g transform="translate(420, 164)" class="key keypos-25">
<rect rx="6" ry="6" x="-26" y="-26" width="52" height="52" class="key"/>
<text x="0" y="0" class="key tap">K</text>
<text x="-22" y="-18" class="key shifted">INSERT</text>
<use href="#mdi:skip-backward" xlink:href="#mdi:skip-backward" x="-24" y="-5" height="10" width="10.0" class="key left glyph mdi:skip-backward"/>
</g>
<g transform="translate(476, 156)" class="key keypos-26">
<rect rx="6" ry="6" x="-26" y="-26" width="52" height="52" class="key"/>
<text x="0" y="0" class="key tap">H</text>
<text x="-22" y="-18" class="key shifted">Home</text>
<use href="#mdi:skip-forward" xlink:href="#mdi:skip-forward" x="-24" y="-5" height="10" width="10.0" class="key left glyph mdi:skip-forward"/>
</g>
<g transform="translate(532, 140)" class="key keypos-27">
<rect rx="6" ry="6" x="-26" y="-26" width="52" height="52" class="key"/>
<text x="0" y="0" class="key tap">,</text>
<text x="-22" y="-18" class="key shifted">Tab</text>
<use href="#mdi:volume-off" xlink:href="#mdi:volume-off" x="-24" y="-5" height="10" width="10.0" class="key left glyph mdi:volume-off"/>
</g>
<g transform="translate(588, 158)" class="key keypos-28">
<rect rx="6" ry="6" x="-26" y="-26" width="52" height="52" class="key"/>
<text x="0" y="0" class="key tap">.</text>
<text x="-22" y="-18" class="key shifted">End</text>
<use href="#mdi:volume-medium" xlink:href="#mdi:volume-medium" x="-24" y="-5" height="10" width="10.0" class="key left glyph mdi:volume-medium"/>
</g>
<g transform="translate(644, 193)" class="key keypos-29">
<rect rx="6" ry="6" x="-26" y="-26" width="52" height="52" class="key"/>
<text x="0" y="0" class="key tap">/</text>
<use href="#mdi:volume-high" xlink:href="#mdi:volume-high" x="-24" y="-5" height="10" width="10.0" class="key left glyph mdi:volume-high"/>
</g>
<g transform="translate(221, 221) rotate(15.0)" class="key keypos-30">
<rect rx="6" ry="6" x="-26" y="-26" width="52" height="52" class="key"/>
<text x="0" y="0" class="key tap">l_nav</text>
<text x="-22" y="20" class="key left">l_nav</text>
</g>
<g transform="translate(279, 245) rotate(30.0)" class="key keypos-31">
<rect rx="6" ry="6" x="-26" y="-26" width="52" height="52" class="key"/>
<text x="0" y="0" class="key tap">Spc</text>
<text x="-22" y="20" class="key left">Spc</text>
</g>
<g transform="translate(393, 245) rotate(-30.0)" class="key keypos-32">
<rect rx="6" ry="6" x="-26" y="-26" width="52" height="52" class="key"/>
<text x="0" y="0" class="key tap">Shift</text>
<text x="-22" y="-18" class="key shifted">CANCEL</text>
</g>
<g transform="translate(451, 221) rotate(-15.0)" class="key keypos-33">
<rect rx="6" ry="6" x="-26" y="-26" width="52" height="52" class="key"/>
<text x="0" y="0" class="key tap">Numword</text>
<text x="-22" y="-18" class="key shifted">l_num</text>
</g>
</g>
</g>
</svg>
