<svg xmlns="http://www.w3.org/2000/svg" xmlns:xlink="http://www.w3.org/1999/xlink" width="732.0" height="686.0" viewBox="0.0 0.0 732.0 686.0" class="keymap">
<defs>
<svg id="mdi:bluetooth">
<svg id="mdi-bluetooth" viewBox="0 0 24 24"><path d="M14.88,16.29L13,18.17V14.41M13,5.83L14.88,7.71L13,9.58M17.71,7.71L12,2H11V9.58L6.41,5L5,6.41L10.59,12L5,17.58L6.41,19L11,14.41V22H12L17.71,16.29L13.41,12L17.71,7.71Z" /></svg>
</svg>
<svg id="mdi:bluetooth-off">
<svg id="mdi-bluetooth-off" viewBox="0 0 24 24"><path d="M13,5.83L14.88,7.71L13.28,9.31L14.69,10.72L17.71,7.7L12,2H11V7.03L13,9.03M5.41,4L4,5.41L10.59,12L5,17.59L6.41,19L11,14.41V22H12L16.29,17.71L18.59,20L20,18.59M13,18.17V14.41L14.88,16.29" /></svg>
</svg>
<svg id="mdi:keyboard-return">
<svg id="mdi-keyboard-return" viewBox="0 0 24 24"><path d="M19,7V11H5.83L9.41,7.41L8,6L2,12L8,18L9.41,16.58L5.83,13H21V7H19Z" /></svg>
</svg>
<svg id="mdi:menu">
<svg id="mdi-menu" viewBox="0 0 24 24"><path d="M3,6H21V8H3V6M3,11H21V13H3V11M3,16H21V18H3V16Z" /></svg>
</svg>
<svg id="mdi:pause">
<svg id="mdi-pause" viewBox="0 0 24 24"><path d="M14,19H18V5H14M6,19H10V5H6V19Z" /></svg>
</svg>
<svg id="mdi:play-pause">
<svg id="mdi-play-pause" viewBox="0 0 24 24"><path d="M3,5V19L11,12M13,19H16V5H13M18,5V19H21V5" /></svg>
</svg>
<svg id="mdi:progress-download">
<svg id="mdi-progress-download" viewBox="0 0 24 24"><path d="M13,2.03C17.73,2.5 21.5,6.25 21.95,11C22.5,16.5 18.5,21.38 13,21.93V19.93C16.64,19.5 19.5,16.61 19.96,12.97C20.5,8.58 17.39,4.59 13,4.05V2.05L13,2.03M11,2.06V4.06C9.57,4.26 8.22,4.84 7.1,5.74L5.67,4.26C7.19,3 9.05,2.25 11,2.06M4.26,5.67L5.69,7.1C4.8,8.23 4.24,9.58 4.05,11H2.05C2.25,9.04 3,7.19 4.26,5.67M2.06,13H4.06C4.24,14.42 4.81,15.77 5.69,16.9L4.27,18.33C3.03,16.81 2.26,14.96 2.06,13M7.1,18.37C8.23,19.25 9.58,19.82 11,20V22C9.04,21.79 7.18,21 5.67,19.74L7.1,18.37M12,16.5L7.5,12H11V8H13V12H16.5L12,16.5Z" /></svg>
</svg>
<svg id="mdi:restart">
<svg id="mdi-restart" viewBox="0 0 24 24"><path d="M12,4C14.1,4 16.1,4.8 17.6,6.3C20.7,9.4 20.7,14.5 17.6,17.6C15.8,19.5 13.3,20.2 10.9,19.9L11.4,17.9C13.1,18.1 14.9,17.5 16.2,16.2C18.5,13.9 18.5,10.1 16.2,7.7C15.1,6.6 13.5,6 12,6V10.6L7,5.6L12,0.6V4M6.3,17.6C3.7,15 3.3,11 5.1,7.9L6.6,9.4C5.5,11.6 5.9,14.4 7.8,16.2C8.3,16.7 8.9,17.1 9.6,17.4L9,19.4C8,19 7.1,18.4 6.3,17.6Z" /></svg>
</svg>
<svg id="mdi:skip-backward">
<svg id="mdi-skip-backward" viewBox="0 0 24 24"><path d="M20,5V19L13,12M6,5V19H4V5M13,5V19L6,12" /></svg>
</svg>
<svg id="mdi:skip-forward">
<svg id="mdi-skip-forward" viewBox="0 0 24 24"><path d="M4,5V19L11,12M18,5V19H20V5M11,5V19L18,12" /></svg>
</svg>
<svg id="mdi:usb">
<svg id="mdi-usb" viewBox="0 0 24 24"><path d="M15,7V11H16V13H13V5H15L12,1L9,5H11V13H8V10.93C8.7,10.56 9.2,9.85 9.2,9C9.2,7.78 8.21,6.8 7,6.8C5.78,6.8 4.8,7.78 4.8,9C4.8,9.85 5.3,10.56 6,10.93V13A2,2 0 0,0 8,15H11V18.05C10.29,18.41 9.8,19.15 9.8,20A2.2,2.2 0 0,0 12,22.2A2.2,2.2 0 0,0 14.2,20C14.2,19.15 13.71,18.41 13,18.05V15H16A2,2 0 0,0 18,13V11H19V7H15Z" /></svg>
</svg>
<svg id="mdi:volume-high">
<svg id="mdi-volume-high" viewBox="0 0 24 24"><path d="M14,3.23V5.29C16.89,6.15 19,8.83 19,12C19,15.17 16.89,17.84 14,18.7V20.77C18,19.86 21,16.28 21,12C21,7.72 18,4.14 14,3.23M16.5,12C16.5,10.23 15.5,8.71 14,7.97V16C15.5,15.29 16.5,13.76 16.5,12M3,9V15H7L12,20V4L7,9H3Z" /></svg>
</svg>
<svg id="mdi:volume-medium">
<svg id="mdi-volume-medium" viewBox="0 0 24 24"><path d="M5,9V15H9L14,20V4L9,9M18.5,12C18.5,10.23 17.5,8.71 16,7.97V16C17.5,15.29 18.5,13.76 18.5,12Z" /></svg>
</svg>
<svg id="mdi:volume-off">
<svg id="mdi-volume-off" viewBox="0 0 24 24"><path d="M12,4L9.91,6.09L12,8.18M4.27,3L3,4.27L7.73,9H3V15H7L12,20V13.27L16.25,17.53C15.58,18.04 14.83,18.46 14,18.7V20.77C15.38,20.45 16.63,19.82 17.68,18.96L19.73,21L21,19.73L12,10.73M19,12C19,12.94 18.8,13.82 18.46,14.64L19.97,16.15C20.62,14.91 21,13.5 21,12C21,7.72 18,4.14 14,3.23V5.29C16.89,6.15 19,8.83 19,12M16.5,12C16.5,10.23 15.5,8.71 14,7.97V10.18L16.45,12.63C16.5,12.43 16.5,12.21 16.5,12Z" /></svg>
</svg>
</defs>
<style>/* inherit to force styles through use tags */
svg path {
    fill: inherit;
}

/* font and background color specifications */
svg.keymap {
    font-family: SFMono-Regular,Consolas,Liberation Mono,Menlo,monospace;
    font-size: 14px;
    font-kerning: normal;
    text-rendering: optimizeLegibility;
    fill: #24292e;
}

/* default key styling */
rect.key {
    fill: #f6f8fa;
}

rect.key, rect.combo {
    stroke: #c9cccf;
    stroke-width: 1;
}

/* default key side styling, only used is draw_key_sides is set */
rect.side {
    filter: brightness(90%);
}

/* color accent for combo boxes */
rect.combo, rect.combo-separate {
    fill: #cdf;
}

/* color accent for held keys */
rect.held, rect.combo.held {
    fill: #fdd;
}

/* color accent for ghost (optional) keys */
rect.ghost, rect.combo.ghost {
    stroke-dasharray: 4, 4;
    stroke-width: 2;
}

text {
    text-anchor: middle;
    dominant-baseline: middle;
}

/* styling for layer labels */
text.label {
    font-weight: bold;
    text-anchor: start;
    stroke: white;
    stroke-width: 4;
    paint-order: stroke;
}

/* styling for optional footer */
text.footer {
    text-anchor: end;
    dominant-baseline: auto;
    stroke: white;
    stroke-width: 4;
    paint-order: stroke;
}

/* styling for combo tap, and key non-tap label text */
text.combo, text.hold, text.shifted, text.left, text.right {
    font-size: 11px;
}

text.hold {
    text-anchor: middle;
    dominant-baseline: auto;
}

text.shifted {
    text-anchor: middle;
    dominant-baseline: hanging;
}

text.left {
    text-anchor: start;
}

text.right {
    text-anchor: end;
}

text.layer-activator {
    text-decoration: underline;
}

/* styling for hold/shifted label text in combo box */
text.combo.hold, text.combo.shifted, text.combo.left, text.combo.right {
    font-size: 8px;
}

/* lighter symbol for transparent keys */
text.trans {
    fill: #7b7e81;
}

/* styling for combo dendrons */
path.combo {
    stroke-width: 1;
    stroke: gray;
    fill: none;
}

/* Start Tabler Icons Cleanup */
/* cannot use height/width with glyphs */
.icon-tabler &gt; path {
    fill: inherit;
    stroke: inherit;
    stroke-width: 2;
}
/* hide tabler's default box */
.icon-tabler &gt; path[stroke="none"][fill="none"] {
    visibility: hidden;
}
/* End Tabler Icons Cleanup */

@media (prefers-color-scheme: dark) {
svg.keymap { fill: #d1d6db; }
rect.key { fill: #3f4750; }
rect.key, rect.combo { stroke: #60666c; }
rect.combo, rect.combo-separate { fill: #1f3d7a; }
rect.held, rect.combo.held { fill: #854747; }
text.label, text.footer { stroke: black; }
text.trans { fill: #7e8184; }
path.combo { stroke: #7f7f7f; }

}
/* === COLOR SCHEME === */
:root {
  --color-bg: #282828;
  --color-text: #eddfb1;
  --color-fun: #e5c07b;   /* yellow - function layer (tl) */
  --color-sys: #61afef;   /* blue - system layer (tr) */
  --color-num: #98c379;   /* green - number layer (bl) */
  --color-nav: #c678dd;   /* purple - nav layer (br) */
}
/*
 * merge_layers.py injects corner legends with these CSS classes:
 *   tl = top-left (fun), tr = top-right (sys)
 *   bl = bottom-left (num), br = bottom-right (nav)
 */
/* Key and combo background */
rect.key, rect.combo { fill: var(--color-bg); stroke: black; }
.layer-MAIN_COMBOS rect.key { opacity: 0.7; }
/* Default text color */
text, use { fill: var(--color-text); }
/* Layer corner colors */
text.tl, use.tl, text.held-tl, .layer-fun text, .layer-fun use { fill: var(--color-fun); }
text.tr, use.tr, text.held-tr, .layer-sys text, .layer-sys use { fill: var(--color-sys); }
text.bl, use.bl, text.held-bl, .layer-num text, .layer-num use { fill: var(--color-num); }
text.br, use.br, text.held-br, .layer-nav text, .layer-nav use { fill: var(--color-nav); }

/* Corner legend styles for merged view */
text.tl {
    text-anchor: start;
    dominant-baseline: hanging;
    font-size: 11px;
    fill: #e5c07b;  /* yellow */
}
text.tr {
    text-anchor: end;
    dominant-baseline: hanging;
    font-size: 11px;
    fill: #61afef;  /* blue */
}
text.bl {
    text-anchor: start;
    dominant-baseline: text-after-edge;
    font-size: 11px;
    fill: #98c379;  /* green */
}
text.br {
    text-anchor: end;
    dominant-baseline: text-after-edge;
    font-size: 11px;
    fill: #c678dd;  /* purple */
}
/* Corner glyph/icon colors */
use.tl, .tl path { fill: #e5c07b; }  /* yellow */
use.tr, .tr path { fill: #61afef; }  /* blue */
use.bl, .bl path { fill: #98c379; }  /* green */
use.br, .br path { fill: #c678dd; }  /* purple */
/* Hidden corner elements (e.g., modifiers) */
.hidden { fill: transparent !important; }
</style>
<g transform="translate(30, 0)" class="layer-merged">
<text x="0" y="15" class="label" id="merged">merged</text>
<g transform="translate(0, 30)">
<g transform="translate(28, 81)" class="key keypos-0">
<rect rx="6" ry="6" x="-26" y="-26" width="52" height="52" class="key" />
<text x="0" y="0" class="key tap">Q</text>

<text x="-24" y="-24" class="tl">F12</text>
<text x="24" y="-24" class="tr">Qwrty</text></g>
<g transform="translate(84, 46)" class="key keypos-1">
<rect rx="6" ry="6" x="-26" y="-26" width="52" height="52" class="key" />
<text x="0" y="0" class="key tap">W</text>

<text x="-24" y="-24" class="tl">F7</text>
<text x="24" y="-24" class="tr">Gam</text>
<text x="-24" y="25" class="bl">7</text></g>
<g transform="translate(140, 28)" class="key keypos-2">
<rect rx="6" ry="6" x="-26" y="-26" width="52" height="52" class="key" />
<text x="0" y="0" class="key tap">F</text>

<text x="-24" y="-24" class="tl">F8</text>
<text x="24" y="-24" class="tr">CmkDh</text>
<text x="-24" y="25" class="bl">8</text></g>
<g transform="translate(196, 44)" class="key keypos-3">
<rect rx="6" ry="6" x="-26" y="-26" width="52" height="52" class="key" />
<text x="0" y="0" class="key tap">P</text>

<text x="-24" y="-24" class="tl">F9</text>
<use href="#mdi:bluetooth" xlink:href="#mdi:bluetooth" x="13" y="-24" height="11" width="11" fill="#61afef" class="glyph tr" />
<text x="-24" y="25" class="bl">9</text></g>
<g transform="translate(252, 52)" class="key keypos-4">
<rect rx="6" ry="6" x="-26" y="-26" width="52" height="52" class="key" />
<text x="0" y="0" class="key tap">B</text>

<text x="-24" y="-24" class="tl">PSCRN</text>
<use href="#mdi:usb" xlink:href="#mdi:usb" x="13" y="-24" height="11" width="11" fill="#61afef" class="glyph tr" /></g>
<g transform="translate(420, 52)" class="key keypos-5">
<rect rx="6" ry="6" x="-26" y="-26" width="52" height="52" class="key" />
<text x="0" y="0" class="key tap">J</text>

<text x="24" y="25" class="br">PgUp</text></g>
<g transform="translate(476, 44)" class="key keypos-6">
<rect rx="6" ry="6" x="-26" y="-26" width="52" height="52" class="key" />
<text x="0" y="0" class="key tap">L</text>

<text x="24" y="25" class="br">Bspc</text></g>
<g transform="translate(532, 28)" class="key keypos-7">
<rect rx="6" ry="6" x="-26" y="-26" width="52" height="52" class="key" />
<text x="0" y="0" class="key tap">U</text>

<text x="24" y="25" class="br">&#8593;</text></g>
<g transform="translate(588, 46)" class="key keypos-8">
<rect rx="6" ry="6" x="-26" y="-26" width="52" height="52" class="key" />
<text x="0" y="0" class="key tap">Y</text>

<text x="24" y="25" class="br">Del</text></g>
<g transform="translate(644, 81)" class="key keypos-9">
<rect rx="6" ry="6" x="-26" y="-26" width="52" height="52" class="key" />
<text x="0" y="0" class="key tap">'</text>
</g>
<g transform="translate(28, 137)" class="key mod keypos-10">
<rect rx="6" ry="6" x="-26" y="-26" width="52" height="52" class="key mod" />
<text x="0" y="0" class="key mod tap">A</text>
<text x="0" y="22" class="key mod hold">&#8679;</text>

<text x="-24" y="-24" class="tl">F11</text>
<text x="24" y="-24" class="tr">BT1</text>
<text x="-24" y="25" class="bl">0</text>
<text x="24" y="25" class="br hidden">&#8679;</text></g>
<g transform="translate(84, 102)" class="key mod keypos-11">
<rect rx="6" ry="6" x="-26" y="-26" width="52" height="52" class="key mod" />
<text x="0" y="0" class="key mod tap">R</text>
<text x="0" y="22" class="key mod hold">&#8963;</text>

<text x="-24" y="-24" class="tl">F4</text>
<text x="24" y="-24" class="tr">BT2</text>
<text x="-24" y="25" class="bl">4</text>
<text x="24" y="25" class="br hidden">&#8963;</text></g>
<g transform="translate(140, 84)" class="key mod keypos-12">
<rect rx="6" ry="6" x="-26" y="-26" width="52" height="52" class="key mod" />
<text x="0" y="0" class="key mod tap">S</text>
<text x="0" y="22" class="key mod hold">&#8997;</text>

<text x="-24" y="-24" class="tl">F5</text>
<text x="24" y="-24" class="tr">BT3</text>
<text x="-24" y="25" class="bl">5</text>
<text x="24" y="25" class="br hidden">&#8997;</text></g>
<g transform="translate(196, 100)" class="key mod keypos-13">
<rect rx="6" ry="6" x="-26" y="-26" width="52" height="52" class="key mod" />
<text x="0" y="0" class="key mod tap">T</text>
<text x="0" y="22" class="key mod hold">&#8984;</text>

<text x="-24" y="-24" class="tl">F6</text>
<text x="24" y="-24" class="tr">BT4</text>
<text x="-24" y="25" class="bl">6</text>
<text x="24" y="25" class="br hidden">&#8984;</text></g>
<g transform="translate(252, 108)" class="key keypos-14">
<rect rx="6" ry="6" x="-26" y="-26" width="52" height="52" class="key" />
<text x="0" y="0" class="key tap">G</text>

<text x="-24" y="-24" class="tl">SLCK</text>
<text x="24" y="-24" class="tr">BT5</text></g>
<g transform="translate(420, 108)" class="key keypos-15">
<rect rx="6" ry="6" x="-26" y="-26" width="52" height="52" class="key" />
<text x="0" y="0" class="key tap">M</text>

<use href="#mdi:play-pause" xlink:href="#mdi:play-pause" x="-24" y="-24" height="11" width="11" fill="#e5c07b" class="glyph tl" />
<text x="24" y="25" class="br">PgDn</text></g>
<g transform="translate(476, 100)" class="key mod keypos-16">
<rect rx="6" ry="6" x="-26" y="-26" width="52" height="52" class="key mod" />
<text x="0" y="0" class="key mod tap">N</text>
<text x="0" y="22" class="key mod hold">&#8984;</text>

<text x="-24" y="-24" class="tl hidden">&#8984;</text>
<text x="-24" y="25" class="bl hidden">&#8984;</text>
<text x="24" y="25" class="br">&#8592;</text></g>
<g transform="translate(532, 84)" class="key mod keypos-17">
<rect rx="6" ry="6" x="-26" y="-26" width="52" height="52" class="key mod" />
<text x="0" y="0" class="key mod tap">E</text>
<text x="0" y="22" class="key mod hold">&#8997;</text>

<text x="-24" y="-24" class="tl hidden">&#8997;</text>
<text x="-24" y="25" class="bl hidden">&#8997;</text>
<text x="24" y="25" class="br">&#8595;</text></g>
<g transform="translate(588, 102)" class="key mod keypos-18">
<rect rx="6" ry="6" x="-26" y="-26" width="52" height="52" class="key mod" />
<text x="0" y="0" class="key mod tap">I</text>
<text x="0" y="22" class="key mod hold">&#8963;</text>

<text x="-24" y="-24" class="tl hidden">&#8963;</text>
<text x="-24" y="25" class="bl hidden">&#8963;</text>
<text x="24" y="25" class="br">&#8594;</text></g>
<g transform="translate(644, 137)" class="key mod keypos-19">
<rect rx="6" ry="6" x="-26" y="-26" width="52" height="52" class="key mod" />
<text x="0" y="0" class="key mod tap">O</text>
<text x="0" y="22" class="key mod hold">&#8679;</text>

<text x="-24" y="-24" class="tl hidden">&#8679;</text>
<text x="-24" y="25" class="bl hidden">&#8679;</text>
<use href="#mdi:keyboard-return" xlink:href="#mdi:keyboard-return" x="13" y="14" height="11" width="11" fill="#c678dd" class="glyph br" /></g>
<g transform="translate(28, 193)" class="key keypos-20">
<rect rx="6" ry="6" x="-26" y="-26" width="52" height="52" class="key" />
<text x="0" y="0" class="key tap">Z</text>

<text x="-24" y="-24" class="tl">F10</text>
<use href="#mdi:bluetooth-off" xlink:href="#mdi:bluetooth-off" x="13" y="-24" height="11" width="11" fill="#61afef" class="glyph tr" /></g>
<g transform="translate(84, 158)" class="key keypos-21">
<rect rx="6" ry="6" x="-26" y="-26" width="52" height="52" class="key" />
<text x="0" y="0" class="key tap">X</text>

<text x="-24" y="-24" class="tl">F1</text>
<text x="-24" y="25" class="bl">1</text></g>
<g transform="translate(140, 140)" class="key keypos-22">
<rect rx="6" ry="6" x="-26" y="-26" width="52" height="52" class="key" />
<text x="0" y="0" class="key tap">C</text>

<text x="-24" y="-24" class="tl">F2</text>
<text x="-24" y="25" class="bl">2</text></g>
<g transform="translate(196, 156)" class="key keypos-23">
<rect rx="6" ry="6" x="-26" y="-26" width="52" height="52" class="key" />
<text x="0" y="0" class="key tap">D</text>

<text x="-24" y="-24" class="tl">F3</text>
<use href="#mdi:restart" xlink:href="#mdi:restart" x="13" y="-24" height="11" width="11" fill="#61afef" class="glyph tr" />
<text x="-24" y="25" class="bl">3</text>
<text x="24" y="25" class="br">Ck</text></g>
<g transform="translate(252, 164)" class="key keypos-24">
<rect rx="6" ry="6" x="-26" y="-26" width="52" height="52" class="key" />
<text x="0" y="0" class="key tap">V</text>

<use href="#mdi:pause" xlink:href="#mdi:pause" x="-24" y="-24" height="11" width="11" fill="#e5c07b" class="glyph tl" />
<use href="#mdi:progress-download" xlink:href="#mdi:progress-download" x="13" y="-24" height="11" width="11" fill="#61afef" class="glyph tr" /></g>
<g transform="translate(420, 164)" class="key keypos-25">
<rect rx="6" ry="6" x="-26" y="-26" width="52" height="52" class="key" />
<text x="0" y="0" class="key tap">K</text>

<use href="#mdi:skip-backward" xlink:href="#mdi:skip-backward" x="-24" y="-24" height="11" width="11" fill="#e5c07b" class="glyph tl" />
<text x="24" y="25" class="br">INSERT</text></g>
<g transform="translate(476, 156)" class="key keypos-26">
<rect rx="6" ry="6" x="-26" y="-26" width="52" height="52" class="key" />
<text x="0" y="0" class="key tap">H</text>

<use href="#mdi:skip-forward" xlink:href="#mdi:skip-forward" x="-24" y="-24" height="11" width="11" fill="#e5c07b" class="glyph tl" />
<text x="-24" y="25" class="bl">Ck</text>
<text x="24" y="25" class="br">Home</text></g>
<g transform="translate(532, 140)" class="key keypos-27">
<rect rx="6" ry="6" x="-26" y="-26" width="52" height="52" class="key" />
<text x="0" y="0" class="key tap">,</text>
<text x="0" y="-22" class="key shifted">;</text>

<use href="#mdi:volume-off" xlink:href="#mdi:volume-off" x="-24" y="-24" height="11" width="11" fill="#e5c07b" class="glyph tl" />
<use href="#mdi:menu" xlink:href="#mdi:menu" x="-24" y="14" height="11" width="11" fill="#98c379" class="glyph bl" />
<text x="24" y="25" class="br">Tab</text></g>
<g transform="translate(588, 158)" class="key keypos-28">
<rect rx="6" ry="6" x="-26" y="-26" width="52" height="52" class="key" />
<text x="0" y="0" class="key tap">.</text>
<text x="0" y="-22" class="key shifted">:</text>

<use href="#mdi:volume-medium" xlink:href="#mdi:volume-medium" x="-24" y="-24" height="11" width="11" fill="#e5c07b" class="glyph tl" />
<text x="24" y="25" class="br">End</text></g>
<g transform="translate(644, 193)" class="key keypos-29">
<rect rx="6" ry="6" x="-26" y="-26" width="52" height="52" class="key" />
<text x="0" y="0" class="key tap">/</text>

<use href="#mdi:volume-high" xlink:href="#mdi:volume-high" x="-24" y="-24" height="11" width="11" fill="#e5c07b" class="glyph tl" />
<text x="-24" y="25" class="bl">;</text></g>
<g transform="translate(221, 221) rotate(15.0)" class="key layer-nav keypos-30">
<rect rx="6" ry="6" x="-26" y="-26" width="52" height="52" class="key layer-nav" />
<text x="0" y="0" class="key layer-nav tap">Nav</text>

<text x="-24" y="-24" class="tl hidden">Nav</text></g>
<g transform="translate(279, 245) rotate(30.0)" class="key keypos-31">
<rect rx="6" ry="6" x="-26" y="-26" width="52" height="52" class="key" />
<text x="0" y="0" class="key tap">Spc</text>

<text x="-24" y="-24" class="tl hidden">Spc</text></g>
<g transform="translate(393, 245) rotate(-30.0)" class="key keypos-32">
<rect rx="6" ry="6" x="-26" y="-26" width="52" height="52" class="key" />
<text x="0" y="0" class="key tap">&#8679;</text>
<text x="0" y="-22" class="key shifted"><tspan style="font-size: 78%">Caps Word</tspan></text>

<text x="24" y="25" class="br">CANCEL</text></g>
<g transform="translate(451, 221) rotate(-15.0)" class="key layer-num keypos-33">
<rect rx="6" ry="6" x="-26" y="-26" width="52" height="52" class="key layer-num" />
<text x="0" y="0" class="key layer-num tap">
<tspan x="0" dy="-0.6em">Smart-</tspan><tspan x="0" dy="1.2em">num</tspan>
</text>

<text x="24" y="25" class="br hidden">num</text></g>
</g>
</g>
<text x="702.0" y="328.0" class="footer">hollowhemlock/zmk-config</text><g transform="translate(0,343.0)"><style>/* inherit to force styles through use tags */
svg path {
    fill: inherit;
}

/* font and background color specifications */
svg.keymap {
    font-family: SFMono-Regular,Consolas,Liberation Mono,Menlo,monospace;
    font-size: 14px;
    font-kerning: normal;
    text-rendering: optimizeLegibility;
    fill: #24292e;
}

/* default key styling */
rect.key {
    fill: #f6f8fa;
}

rect.key, rect.combo {
    stroke: #c9cccf;
    stroke-width: 1;
}

/* default key side styling, only used is draw_key_sides is set */
rect.side {
    filter: brightness(90%);
}

/* color accent for combo boxes */
rect.combo, rect.combo-separate {
    fill: #cdf;
}

/* color accent for held keys */
rect.held, rect.combo.held {
    fill: #fdd;
}

/* color accent for ghost (optional) keys */
rect.ghost, rect.combo.ghost {
    stroke-dasharray: 4, 4;
    stroke-width: 2;
}

text {
    text-anchor: middle;
    dominant-baseline: middle;
}

/* styling for layer labels */
text.label {
    font-weight: bold;
    text-anchor: start;
    stroke: white;
    stroke-width: 4;
    paint-order: stroke;
}

/* styling for optional footer */
text.footer {
    text-anchor: end;
    dominant-baseline: auto;
    stroke: white;
    stroke-width: 4;
    paint-order: stroke;
}

/* styling for combo tap, and key non-tap label text */
text.combo, text.hold, text.shifted, text.left, text.right {
    font-size: 11px;
}

text.hold {
    text-anchor: middle;
    dominant-baseline: auto;
}

text.shifted {
    text-anchor: middle;
    dominant-baseline: hanging;
}

text.left {
    text-anchor: start;
}

text.right {
    text-anchor: end;
}

text.layer-activator {
    text-decoration: underline;
}

/* styling for hold/shifted label text in combo box */
text.combo.hold, text.combo.shifted, text.combo.left, text.combo.right {
    font-size: 8px;
}

/* lighter symbol for transparent keys */
text.trans {
    fill: #7b7e81;
}

/* styling for combo dendrons */
path.combo {
    stroke-width: 1;
    stroke: gray;
    fill: none;
}

/* Start Tabler Icons Cleanup */
/* cannot use height/width with glyphs */
.icon-tabler &gt; path {
    fill: inherit;
    stroke: inherit;
    stroke-width: 2;
}
/* hide tabler's default box */
.icon-tabler &gt; path[stroke="none"][fill="none"] {
    visibility: hidden;
}
/* End Tabler Icons Cleanup */

@media (prefers-color-scheme: dark) {
svg.keymap { fill: #d1d6db; }
rect.key { fill: #3f4750; }
rect.key, rect.combo { stroke: #60666c; }
rect.combo, rect.combo-separate { fill: #1f3d7a; }
rect.held, rect.combo.held { fill: #854747; }
text.label, text.footer { stroke: black; }
text.trans { fill: #7e8184; }
path.combo { stroke: #7f7f7f; }

}
/* === COLOR SCHEME === */
:root {
  --color-bg: #282828;
  --color-text: #eddfb1;
  --color-fun: #e5c07b;   /* yellow - function layer (tl) */
  --color-sys: #61afef;   /* blue - system layer (tr) */
  --color-num: #98c379;   /* green - number layer (bl) */
  --color-nav: #c678dd;   /* purple - nav layer (br) */
}
/*
 * merge_layers.py injects corner legends with these CSS classes:
 *   tl = top-left (fun), tr = top-right (sys)
 *   bl = bottom-left (num), br = bottom-right (nav)
 */
/* Key and combo background */
rect.key, rect.combo { fill: var(--color-bg); stroke: black; }
.layer-MAIN_COMBOS rect.key { opacity: 0.7; }
/* Default text color */
text, use { fill: var(--color-text); }
/* Layer corner colors */
text.tl, use.tl, text.held-tl, .layer-fun text, .layer-fun use { fill: var(--color-fun); }
text.tr, use.tr, text.held-tr, .layer-sys text, .layer-sys use { fill: var(--color-sys); }
text.bl, use.bl, text.held-bl, .layer-num text, .layer-num use { fill: var(--color-num); }
text.br, use.br, text.held-br, .layer-nav text, .layer-nav use { fill: var(--color-nav); }
</style>
<g transform="translate(30, 0)" class="layer-MAIN_COMBOS">
<text x="0" y="15" class="label" id="MAIN_COMBOS">MAIN_COMBOS</text>
<g transform="translate(0, 30)">
<g transform="translate(28, 81)" class="key keypos-0">
<rect rx="6" ry="6" x="-26" y="-26" width="52" height="52" class="key" />
</g>
<g transform="translate(84, 46)" class="key keypos-1">
<rect rx="6" ry="6" x="-26" y="-26" width="52" height="52" class="key" />
</g>
<g transform="translate(140, 28)" class="key keypos-2">
<rect rx="6" ry="6" x="-26" y="-26" width="52" height="52" class="key" />
</g>
<g transform="translate(196, 44)" class="key keypos-3">
<rect rx="6" ry="6" x="-26" y="-26" width="52" height="52" class="key" />
</g>
<g transform="translate(252, 52)" class="key keypos-4">
<rect rx="6" ry="6" x="-26" y="-26" width="52" height="52" class="key" />
</g>
<g transform="translate(420, 52)" class="key keypos-5">
<rect rx="6" ry="6" x="-26" y="-26" width="52" height="52" class="key" />
</g>
<g transform="translate(476, 44)" class="key keypos-6">
<rect rx="6" ry="6" x="-26" y="-26" width="52" height="52" class="key" />
</g>
<g transform="translate(532, 28)" class="key keypos-7">
<rect rx="6" ry="6" x="-26" y="-26" width="52" height="52" class="key" />
</g>
<g transform="translate(588, 46)" class="key keypos-8">
<rect rx="6" ry="6" x="-26" y="-26" width="52" height="52" class="key" />
</g>
<g transform="translate(644, 81)" class="key keypos-9">
<rect rx="6" ry="6" x="-26" y="-26" width="52" height="52" class="key" />
</g>
<g transform="translate(28, 137)" class="key keypos-10">
<rect rx="6" ry="6" x="-26" y="-26" width="52" height="52" class="key" />
</g>
<g transform="translate(84, 102)" class="key keypos-11">
<rect rx="6" ry="6" x="-26" y="-26" width="52" height="52" class="key" />
</g>
<g transform="translate(140, 84)" class="key keypos-12">
<rect rx="6" ry="6" x="-26" y="-26" width="52" height="52" class="key" />
</g>
<g transform="translate(196, 100)" class="key keypos-13">
<rect rx="6" ry="6" x="-26" y="-26" width="52" height="52" class="key" />
</g>
<g transform="translate(252, 108)" class="key keypos-14">
<rect rx="6" ry="6" x="-26" y="-26" width="52" height="52" class="key" />
</g>
<g transform="translate(420, 108)" class="key keypos-15">
<rect rx="6" ry="6" x="-26" y="-26" width="52" height="52" class="key" />
</g>
<g transform="translate(476, 100)" class="key keypos-16">
<rect rx="6" ry="6" x="-26" y="-26" width="52" height="52" class="key" />
</g>
<g transform="translate(532, 84)" class="key keypos-17">
<rect rx="6" ry="6" x="-26" y="-26" width="52" height="52" class="key" />
</g>
<g transform="translate(588, 102)" class="key keypos-18">
<rect rx="6" ry="6" x="-26" y="-26" width="52" height="52" class="key" />
</g>
<g transform="translate(644, 137)" class="key keypos-19">
<rect rx="6" ry="6" x="-26" y="-26" width="52" height="52" class="key" />
</g>
<g transform="translate(28, 193)" class="key keypos-20">
<rect rx="6" ry="6" x="-26" y="-26" width="52" height="52" class="key" />
</g>
<g transform="translate(84, 158)" class="key keypos-21">
<rect rx="6" ry="6" x="-26" y="-26" width="52" height="52" class="key" />
</g>
<g transform="translate(140, 140)" class="key keypos-22">
<rect rx="6" ry="6" x="-26" y="-26" width="52" height="52" class="key" />
</g>
<g transform="translate(196, 156)" class="key keypos-23">
<rect rx="6" ry="6" x="-26" y="-26" width="52" height="52" class="key" />
</g>
<g transform="translate(252, 164)" class="key keypos-24">
<rect rx="6" ry="6" x="-26" y="-26" width="52" height="52" class="key" />
</g>
<g transform="translate(420, 164)" class="key keypos-25">
<rect rx="6" ry="6" x="-26" y="-26" width="52" height="52" class="key" />
</g>
<g transform="translate(476, 156)" class="key keypos-26">
<rect rx="6" ry="6" x="-26" y="-26" width="52" height="52" class="key" />
</g>
<g transform="translate(532, 140)" class="key keypos-27">
<rect rx="6" ry="6" x="-26" y="-26" width="52" height="52" class="key" />
</g>
<g transform="translate(588, 158)" class="key keypos-28">
<rect rx="6" ry="6" x="-26" y="-26" width="52" height="52" class="key" />
</g>
<g transform="translate(644, 193)" class="key keypos-29">
<rect rx="6" ry="6" x="-26" y="-26" width="52" height="52" class="key" />
</g>
<g transform="translate(221, 221) rotate(15.0)" class="key keypos-30">
<rect rx="6" ry="6" x="-26" y="-26" width="52" height="52" class="key" />
</g>
<g transform="translate(279, 245) rotate(30.0)" class="key keypos-31">
<rect rx="6" ry="6" x="-26" y="-26" width="52" height="52" class="key" />
</g>
<g transform="translate(393, 245) rotate(-30.0)" class="key keypos-32">
<rect rx="6" ry="6" x="-26" y="-26" width="52" height="52" class="key" />
</g>
<g transform="translate(451, 221) rotate(-15.0)" class="key keypos-33">
<rect rx="6" ry="6" x="-26" y="-26" width="52" height="52" class="key" />
</g>
<g class="combo layer-sys combopos-0">
<rect rx="6" ry="6" x="210" y="91" width="28" height="26" class="combo layer-sys" />
<text x="224" y="104" class="combo layer-sys tap">Sys</text>
</g>
<g class="combo layer-sys combopos-1">
<rect rx="6" ry="6" x="210" y="91" width="28" height="26" class="combo layer-sys" />
<text x="224" y="104" class="combo layer-sys tap">Sys</text>
</g>
<g class="combo layer-sys combopos-2">
<rect rx="6" ry="6" x="210" y="91" width="28" height="26" class="combo layer-sys" />
<text x="224" y="104" class="combo layer-sys tap">Sys</text>
</g>
<g class="combo layer-sys combopos-3">
<rect rx="6" ry="6" x="210" y="91" width="28" height="26" class="combo layer-sys" />
<text x="224" y="104" class="combo layer-sys tap">Sys</text>
</g>
<g class="combo layer-sys combopos-4">
<rect rx="6" ry="6" x="434" y="91" width="28" height="26" class="combo layer-sys" />
<text x="448" y="104" class="combo layer-sys tap">Sys</text>
</g>
<g class="combo layer-sys combopos-5">
<rect rx="6" ry="6" x="434" y="91" width="28" height="26" class="combo layer-sys" />
<text x="448" y="104" class="combo layer-sys tap">Sys</text>
</g>
<g class="combo layer-sys combopos-6">
<rect rx="6" ry="6" x="434" y="91" width="28" height="26" class="combo layer-sys" />
<text x="448" y="104" class="combo layer-sys tap">Sys</text>
</g>
<g class="combo layer-sys combopos-7">
<rect rx="6" ry="6" x="434" y="91" width="28" height="26" class="combo layer-sys" />
<text x="448" y="104" class="combo layer-sys tap">Sys</text>
</g>
<g class="combo combopos-8">
<rect rx="6" ry="6" x="98" y="24" width="28" height="26" class="combo" />
<text x="112" y="37" class="combo tap"><tspan style="font-size: 64%">&amp;key_repeat</tspan></text>
</g>
<g class="combo combopos-9">
<rect rx="6" ry="6" x="98" y="24" width="28" height="26" class="combo" />
<text x="112" y="37" class="combo tap"><tspan style="font-size: 64%">&amp;key_repeat</tspan></text>
</g>
<g class="combo combopos-10">
<rect rx="6" ry="6" x="98" y="24" width="28" height="26" class="combo" />
<text x="112" y="37" class="combo tap"><tspan style="font-size: 64%">&amp;key_repeat</tspan></text>
</g>
<g class="combo combopos-11">
<rect rx="6" ry="6" x="98" y="24" width="28" height="26" class="combo" />
<text x="112" y="37" class="combo tap"><tspan style="font-size: 64%">&amp;key_repeat</tspan></text>
</g>
<g class="combo combopos-12">
<rect rx="6" ry="6" x="154" y="23" width="28" height="26" class="combo" />
<text x="168" y="36" class="combo tap">Tab</text>
</g>
<g class="combo combopos-13">
<rect rx="6" ry="6" x="154" y="23" width="28" height="26" class="combo" />
<text x="168" y="36" class="combo tap">Tab</text>
</g>
<g class="combo combopos-14">
<rect rx="6" ry="6" x="154" y="23" width="28" height="26" class="combo" />
<text x="168" y="36" class="combo tap">Tab</text>
</g>
<g class="combo combopos-15">
<rect rx="6" ry="6" x="154" y="23" width="28" height="26" class="combo" />
<text x="168" y="36" class="combo tap">Tab</text>
</g>
<g class="combo combopos-16">
<rect rx="6" ry="6" x="98" y="80" width="28" height="26" class="combo" />
<text x="112" y="93" class="combo tap">Esc</text>
</g>
<g class="combo combopos-17">
<rect rx="6" ry="6" x="98" y="80" width="28" height="26" class="combo" />
<text x="112" y="93" class="combo tap">Esc</text>
</g>
<g class="combo combopos-18">
<rect rx="6" ry="6" x="98" y="80" width="28" height="26" class="combo" />
<text x="112" y="93" class="combo tap">Esc</text>
</g>
<g class="combo combopos-19">
<rect rx="6" ry="6" x="98" y="80" width="28" height="26" class="combo" />
<text x="112" y="93" class="combo tap">Esc</text>
</g>
<g class="combo combopos-20">
<rect rx="6" ry="6" x="154" y="79" width="28" height="26" class="combo" />
<use href="#mdi:keyboard-return" xlink:href="#mdi:keyboard-return" x="161" y="85" height="14" width="14.0" class="combo tap glyph mdi:keyboard-return" />
</g>
<g class="combo combopos-21">
<rect rx="6" ry="6" x="154" y="79" width="28" height="26" class="combo" />
<use href="#mdi:keyboard-return" xlink:href="#mdi:keyboard-return" x="161" y="85" height="14" width="14.0" class="combo tap glyph mdi:keyboard-return" />
</g>
<g class="combo combopos-22">
<rect rx="6" ry="6" x="154" y="79" width="28" height="26" class="combo" />
<use href="#mdi:keyboard-return" xlink:href="#mdi:keyboard-return" x="161" y="85" height="14" width="14.0" class="combo tap glyph mdi:keyboard-return" />
</g>
<g class="combo combopos-23">
<rect rx="6" ry="6" x="154" y="79" width="28" height="26" class="combo" />
<use href="#mdi:keyboard-return" xlink:href="#mdi:keyboard-return" x="161" y="85" height="14" width="14.0" class="combo tap glyph mdi:keyboard-return" />
</g>
<g class="combo combopos-24">
<path d="M140,157 l-37,1" class="combo" />
<path d="M140,157 l37,-1" class="combo" />
<rect rx="6" ry="6" x="126" y="144" width="28" height="26" class="combo" />
<text x="140" y="157" class="combo tap">Cut</text>
</g>
<g class="combo combopos-25">
<path d="M140,157 l-37,1" class="combo" />
<path d="M140,157 l37,-1" class="combo" />
<rect rx="6" ry="6" x="126" y="144" width="28" height="26" class="combo" />
<text x="140" y="157" class="combo tap">Cut</text>
</g>
<g class="combo combopos-26">
<path d="M140,157 l-37,1" class="combo" />
<path d="M140,157 l37,-1" class="combo" />
<rect rx="6" ry="6" x="126" y="144" width="28" height="26" class="combo" />
<text x="140" y="157" class="combo tap">Cut</text>
</g>
<g class="combo combopos-27">
<path d="M140,157 l-37,1" class="combo" />
<path d="M140,157 l37,-1" class="combo" />
<rect rx="6" ry="6" x="126" y="144" width="28" height="26" class="combo" />
<text x="140" y="157" class="combo tap">Cut</text>
</g>
<g class="combo combopos-28">
<rect rx="6" ry="6" x="98" y="136" width="28" height="26" class="combo" />
<text x="112" y="149" class="combo tap">Copy</text>
</g>
<g class="combo combopos-29">
<rect rx="6" ry="6" x="98" y="136" width="28" height="26" class="combo" />
<text x="112" y="149" class="combo tap">Copy</text>
</g>
<g class="combo combopos-30">
<rect rx="6" ry="6" x="98" y="136" width="28" height="26" class="combo" />
<text x="112" y="149" class="combo tap">Copy</text>
</g>
<g class="combo combopos-31">
<rect rx="6" ry="6" x="98" y="136" width="28" height="26" class="combo" />
<text x="112" y="149" class="combo tap">Copy</text>
</g>
<g class="combo combopos-32">
<rect rx="6" ry="6" x="154" y="135" width="28" height="26" class="combo" />
<text x="168" y="148" class="combo tap">Paste</text>
</g>
<g class="combo combopos-33">
<rect rx="6" ry="6" x="154" y="135" width="28" height="26" class="combo" />
<text x="168" y="148" class="combo tap">Paste</text>
</g>
<g class="combo combopos-34">
<rect rx="6" ry="6" x="154" y="135" width="28" height="26" class="combo" />
<text x="168" y="148" class="combo tap">Paste</text>
</g>
<g class="combo combopos-35">
<rect rx="6" ry="6" x="154" y="135" width="28" height="26" class="combo" />
<text x="168" y="148" class="combo tap">Paste</text>
</g>
<g class="combo combopos-36">
<rect rx="6" ry="6" x="490" y="79" width="28" height="26" class="combo" />
<text x="504" y="92" class="combo tap">(</text>
<text x="504" y="101" class="combo hold">AltGr+&#8984;</text>
</g>
<g class="combo combopos-37">
<rect rx="6" ry="6" x="490" y="79" width="28" height="26" class="combo" />
<text x="504" y="92" class="combo tap">(</text>
<text x="504" y="101" class="combo hold">AltGr+&#8984;</text>
</g>
<g class="combo combopos-38">
<rect rx="6" ry="6" x="490" y="79" width="28" height="26" class="combo" />
<text x="504" y="92" class="combo tap">(</text>
<text x="504" y="101" class="combo hold">AltGr+&#8984;</text>
</g>
<g class="combo combopos-39">
<rect rx="6" ry="6" x="546" y="80" width="28" height="26" class="combo" />
<text x="560" y="93" class="combo tap">)</text>
<text x="560" y="102" class="combo hold">AltGr+&#8963;</text>
</g>
<g class="combo combopos-40">
<rect rx="6" ry="6" x="546" y="80" width="28" height="26" class="combo" />
<text x="560" y="93" class="combo tap">)</text>
<text x="560" y="102" class="combo hold">AltGr+&#8963;</text>
</g>
<g class="combo combopos-41">
<rect rx="6" ry="6" x="546" y="80" width="28" height="26" class="combo" />
<text x="560" y="93" class="combo tap">)</text>
<text x="560" y="102" class="combo hold">AltGr+&#8963;</text>
</g>
<g class="combo combopos-42">
<rect rx="6" ry="6" x="490" y="79" width="28" height="26" class="combo" />
<text x="504" y="92" class="combo tap">(&lt;</text>
</g>
<g class="combo combopos-43">
<rect rx="6" ry="6" x="546" y="80" width="28" height="26" class="combo" />
<text x="560" y="93" class="combo tap">)&gt;</text>
</g>
<g class="combo combopos-44">
<rect rx="6" ry="6" x="490" y="135" width="28" height="26" class="combo" />
<text x="504" y="148" class="combo tap">[</text>
</g>
<g class="combo combopos-45">
<rect rx="6" ry="6" x="490" y="135" width="28" height="26" class="combo" />
<text x="504" y="148" class="combo tap">[</text>
</g>
<g class="combo combopos-46">
<rect rx="6" ry="6" x="490" y="135" width="28" height="26" class="combo" />
<text x="504" y="148" class="combo tap">[</text>
</g>
<g class="combo combopos-47">
<rect rx="6" ry="6" x="546" y="136" width="28" height="26" class="combo" />
<text x="560" y="149" class="combo tap">]</text>
</g>
<g class="combo combopos-48">
<rect rx="6" ry="6" x="546" y="136" width="28" height="26" class="combo" />
<text x="560" y="149" class="combo tap">]</text>
</g>
<g class="combo combopos-49">
<rect rx="6" ry="6" x="546" y="136" width="28" height="26" class="combo" />
<text x="560" y="149" class="combo tap">]</text>
</g>
<g class="combo combopos-50">
<rect rx="6" ry="6" x="490" y="135" width="28" height="26" class="combo" />
<text x="504" y="148" class="combo tap">[{</text>
</g>
<g class="combo combopos-51">
<rect rx="6" ry="6" x="546" y="136" width="28" height="26" class="combo" />
<text x="560" y="149" class="combo tap">]}</text>
</g>
<g class="combo layer-fun combopos-52">
<rect rx="6" ry="6" x="408" y="220" width="28" height="26" class="combo layer-fun" />
<text x="422" y="233" class="combo layer-fun tap">Fun</text>
</g>
<g class="combo layer-fun combopos-53">
<rect rx="6" ry="6" x="408" y="220" width="28" height="26" class="combo layer-fun" />
<text x="422" y="233" class="combo layer-fun tap">Fun</text>
</g>
<g class="combo layer-fun combopos-54">
<rect rx="6" ry="6" x="408" y="220" width="28" height="26" class="combo layer-fun" />
<text x="422" y="233" class="combo layer-fun tap">Fun</text>
</g>
<g class="combo combopos-55">
<rect rx="6" ry="6" x="70" y="61" width="28" height="26" class="combo" />
<text x="84" y="74" class="combo tap">@</text>
</g>
<g class="combo combopos-56">
<rect rx="6" ry="6" x="70" y="61" width="28" height="26" class="combo" />
<text x="84" y="74" class="combo tap">@</text>
</g>
<g class="combo combopos-57">
<rect rx="6" ry="6" x="70" y="61" width="28" height="26" class="combo" />
<text x="84" y="74" class="combo tap">@</text>
</g>
<g class="combo combopos-58">
<rect rx="6" ry="6" x="70" y="61" width="28" height="26" class="combo" />
<text x="84" y="74" class="combo tap">@</text>
</g>
<g class="combo combopos-59">
<rect rx="6" ry="6" x="126" y="43" width="28" height="26" class="combo" />
<text x="140" y="56" class="combo tap">#</text>
</g>
<g class="combo combopos-60">
<rect rx="6" ry="6" x="126" y="43" width="28" height="26" class="combo" />
<text x="140" y="56" class="combo tap">#</text>
</g>
<g class="combo combopos-61">
<rect rx="6" ry="6" x="126" y="43" width="28" height="26" class="combo" />
<text x="140" y="56" class="combo tap">#</text>
</g>
<g class="combo combopos-62">
<rect rx="6" ry="6" x="126" y="43" width="28" height="26" class="combo" />
<text x="140" y="56" class="combo tap">#</text>
</g>
<g class="combo combopos-63">
<rect rx="6" ry="6" x="182" y="59" width="28" height="26" class="combo" />
<text x="196" y="72" class="combo tap">$</text>
</g>
<g class="combo combopos-64">
<rect rx="6" ry="6" x="182" y="59" width="28" height="26" class="combo" />
<text x="196" y="72" class="combo tap">$</text>
</g>
<g class="combo combopos-65">
<rect rx="6" ry="6" x="182" y="59" width="28" height="26" class="combo" />
<text x="196" y="72" class="combo tap">$</text>
</g>
<g class="combo combopos-66">
<rect rx="6" ry="6" x="182" y="59" width="28" height="26" class="combo" />
<text x="196" y="72" class="combo tap">$</text>
</g>
<g class="combo combopos-67">
<rect rx="6" ry="6" x="238" y="67" width="28" height="26" class="combo" />
<text x="252" y="80" class="combo tap">%</text>
</g>
<g class="combo combopos-68">
<rect rx="6" ry="6" x="238" y="67" width="28" height="26" class="combo" />
<text x="252" y="80" class="combo tap">%</text>
</g>
<g class="combo combopos-69">
<rect rx="6" ry="6" x="238" y="67" width="28" height="26" class="combo" />
<text x="252" y="80" class="combo tap">%</text>
</g>
<g class="combo combopos-70">
<rect rx="6" ry="6" x="238" y="67" width="28" height="26" class="combo" />
<text x="252" y="80" class="combo tap">%</text>
</g>
<g class="combo combopos-71">
<rect rx="6" ry="6" x="406" y="67" width="28" height="26" class="combo" />
<text x="420" y="80" class="combo tap">^</text>
</g>
<g class="combo combopos-72">
<rect rx="6" ry="6" x="406" y="67" width="28" height="26" class="combo" />
<text x="420" y="80" class="combo tap">^</text>
</g>
<g class="combo combopos-73">
<rect rx="6" ry="6" x="406" y="67" width="28" height="26" class="combo" />
<text x="420" y="80" class="combo tap">^</text>
</g>
<g class="combo combopos-74">
<rect rx="6" ry="6" x="406" y="67" width="28" height="26" class="combo" />
<text x="420" y="80" class="combo tap">^</text>
</g>
<g class="combo combopos-75">
<rect rx="6" ry="6" x="462" y="59" width="28" height="26" class="combo" />
<text x="476" y="72" class="combo tap">+</text>
</g>
<g class="combo combopos-76">
<rect rx="6" ry="6" x="462" y="59" width="28" height="26" class="combo" />
<text x="476" y="72" class="combo tap">+</text>
</g>
<g class="combo combopos-77">
<rect rx="6" ry="6" x="462" y="59" width="28" height="26" class="combo" />
<text x="476" y="72" class="combo tap">+</text>
</g>
<g class="combo combopos-78">
<rect rx="6" ry="6" x="462" y="59" width="28" height="26" class="combo" />
<text x="476" y="72" class="combo tap">+</text>
</g>
<g class="combo combopos-79">
<rect rx="6" ry="6" x="518" y="43" width="28" height="26" class="combo" />
<text x="532" y="56" class="combo tap">*</text>
</g>
<g class="combo combopos-80">
<rect rx="6" ry="6" x="518" y="43" width="28" height="26" class="combo" />
<text x="532" y="56" class="combo tap">*</text>
</g>
<g class="combo combopos-81">
<rect rx="6" ry="6" x="518" y="43" width="28" height="26" class="combo" />
<text x="532" y="56" class="combo tap">*</text>
</g>
<g class="combo combopos-82">
<rect rx="6" ry="6" x="518" y="43" width="28" height="26" class="combo" />
<text x="532" y="56" class="combo tap">*</text>
</g>
<g class="combo combopos-83">
<rect rx="6" ry="6" x="574" y="61" width="28" height="26" class="combo" />
<text x="588" y="74" class="combo tap">&amp;</text>
</g>
<g class="combo combopos-84">
<rect rx="6" ry="6" x="574" y="61" width="28" height="26" class="combo" />
<text x="588" y="74" class="combo tap">&amp;</text>
</g>
<g class="combo combopos-85">
<rect rx="6" ry="6" x="574" y="61" width="28" height="26" class="combo" />
<text x="588" y="74" class="combo tap">&amp;</text>
</g>
<g class="combo combopos-86">
<rect rx="6" ry="6" x="574" y="61" width="28" height="26" class="combo" />
<text x="588" y="74" class="combo tap">&amp;</text>
</g>
<g class="combo combopos-87">
<rect rx="6" ry="6" x="70" y="117" width="28" height="26" class="combo" />
<text x="84" y="130" class="combo tap">`</text>
</g>
<g class="combo combopos-88">
<rect rx="6" ry="6" x="70" y="117" width="28" height="26" class="combo" />
<text x="84" y="130" class="combo tap">`</text>
</g>
<g class="combo combopos-89">
<rect rx="6" ry="6" x="70" y="117" width="28" height="26" class="combo" />
<text x="84" y="130" class="combo tap">`</text>
</g>
<g class="combo combopos-90">
<rect rx="6" ry="6" x="70" y="117" width="28" height="26" class="combo" />
<text x="84" y="130" class="combo tap">`</text>
</g>
<g class="combo combopos-91">
<rect rx="6" ry="6" x="126" y="99" width="28" height="26" class="combo" />
<text x="140" y="112" class="combo tap">\</text>
</g>
<g class="combo combopos-92">
<rect rx="6" ry="6" x="126" y="99" width="28" height="26" class="combo" />
<text x="140" y="112" class="combo tap">\</text>
</g>
<g class="combo combopos-93">
<rect rx="6" ry="6" x="126" y="99" width="28" height="26" class="combo" />
<text x="140" y="112" class="combo tap">\</text>
</g>
<g class="combo combopos-94">
<rect rx="6" ry="6" x="126" y="99" width="28" height="26" class="combo" />
<text x="140" y="112" class="combo tap">\</text>
</g>
<g class="combo combopos-95">
<rect rx="6" ry="6" x="182" y="115" width="28" height="26" class="combo" />
<text x="196" y="128" class="combo tap">=</text>
</g>
<g class="combo combopos-96">
<rect rx="6" ry="6" x="182" y="115" width="28" height="26" class="combo" />
<text x="196" y="128" class="combo tap">=</text>
</g>
<g class="combo combopos-97">
<rect rx="6" ry="6" x="182" y="115" width="28" height="26" class="combo" />
<text x="196" y="128" class="combo tap">=</text>
</g>
<g class="combo combopos-98">
<rect rx="6" ry="6" x="182" y="115" width="28" height="26" class="combo" />
<text x="196" y="128" class="combo tap">=</text>
</g>
<g class="combo combopos-99">
<rect rx="6" ry="6" x="238" y="123" width="28" height="26" class="combo" />
<text x="252" y="136" class="combo tap">~</text>
</g>
<g class="combo combopos-100">
<rect rx="6" ry="6" x="238" y="123" width="28" height="26" class="combo" />
<text x="252" y="136" class="combo tap">~</text>
</g>
<g class="combo combopos-101">
<rect rx="6" ry="6" x="238" y="123" width="28" height="26" class="combo" />
<text x="252" y="136" class="combo tap">~</text>
</g>
<g class="combo combopos-102">
<rect rx="6" ry="6" x="238" y="123" width="28" height="26" class="combo" />
<text x="252" y="136" class="combo tap">~</text>
</g>
<g class="combo combopos-103">
<rect rx="6" ry="6" x="406" y="123" width="28" height="26" class="combo" />
<text x="420" y="136" class="combo tap">_</text>
</g>
<g class="combo combopos-104">
<rect rx="6" ry="6" x="406" y="123" width="28" height="26" class="combo" />
<text x="420" y="136" class="combo tap">_</text>
</g>
<g class="combo combopos-105">
<rect rx="6" ry="6" x="406" y="123" width="28" height="26" class="combo" />
<text x="420" y="136" class="combo tap">_</text>
</g>
<g class="combo combopos-106">
<rect rx="6" ry="6" x="406" y="123" width="28" height="26" class="combo" />
<text x="420" y="136" class="combo tap">_</text>
</g>
<g class="combo combopos-107">
<rect rx="6" ry="6" x="462" y="115" width="28" height="26" class="combo" />
<text x="476" y="128" class="combo tap">-</text>
</g>
<g class="combo combopos-108">
<rect rx="6" ry="6" x="462" y="115" width="28" height="26" class="combo" />
<text x="476" y="128" class="combo tap">-</text>
</g>
<g class="combo combopos-109">
<rect rx="6" ry="6" x="462" y="115" width="28" height="26" class="combo" />
<text x="476" y="128" class="combo tap">-</text>
</g>
<g class="combo combopos-110">
<rect rx="6" ry="6" x="462" y="115" width="28" height="26" class="combo" />
<text x="476" y="128" class="combo tap">-</text>
</g>
<g class="combo combopos-111">
<rect rx="6" ry="6" x="518" y="99" width="28" height="26" class="combo" />
<text x="532" y="112" class="combo tap">!</text>
</g>
<g class="combo combopos-112">
<rect rx="6" ry="6" x="518" y="99" width="28" height="26" class="combo" />
<text x="532" y="112" class="combo tap">!</text>
</g>
<g class="combo combopos-113">
<rect rx="6" ry="6" x="518" y="99" width="28" height="26" class="combo" />
<text x="532" y="112" class="combo tap">!</text>
</g>
<g class="combo combopos-114">
<rect rx="6" ry="6" x="518" y="99" width="28" height="26" class="combo" />
<text x="532" y="112" class="combo tap">!</text>
</g>
<g class="combo combopos-115">
<rect rx="6" ry="6" x="574" y="117" width="28" height="26" class="combo" />
<text x="588" y="130" class="combo tap">|</text>
</g>
<g class="combo combopos-116">
<rect rx="6" ry="6" x="574" y="117" width="28" height="26" class="combo" />
<text x="588" y="130" class="combo tap">|</text>
</g>
<g class="combo combopos-117">
<rect rx="6" ry="6" x="574" y="117" width="28" height="26" class="combo" />
<text x="588" y="130" class="combo tap">|</text>
</g>
<g class="combo combopos-118">
<rect rx="6" ry="6" x="574" y="117" width="28" height="26" class="combo" />
<text x="588" y="130" class="combo tap">|</text>
</g>
</g>
</g>
<text x="702.0" y="328.0" class="footer">hollowhemlock/zmk-config</text></g></svg>