<svg xmlns="http://www.w3.org/2000/svg" xmlns:xlink="http://www.w3.org/1999/xlink" width="732.0" height="686.0" viewBox="0.0 0.0 732.0 686.0" class="keymap">
<defs>
<svg id="mdi:pause">
<svg id="mdi-pause" viewBox="0 0 24 24"><path d="M14,19H18V5H14M6,19H10V5H6V19Z" /></svg>
</svg>
<svg id="mdi:play-pause">
<svg id="mdi-play-pause" viewBox="0 0 24 24"><path d="M3,5V19L11,12M13,19H16V5H13M18,5V19H21V5" /></svg>
</svg>
<svg id="mdi:skip-backward">
<svg id="mdi-skip-backward" viewBox="0 0 24 24"><path d="M20,5V19L13,12M6,5V19H4V5M13,5V19L6,12" /></svg>
</svg>
<svg id="mdi:skip-forward">
<svg id="mdi-skip-forward" viewBox="0 0 24 24"><path d="M4,5V19L11,12M18,5V19H20V5M11,5V19L18,12" /></svg>
</svg>
<svg id="mdi:volume-high">
<svg id="mdi-volume-high" viewBox="0 0 24 24"><path d="M14,3.23V5.29C16.89,6.15 19,8.83 19,12C19,15.17 16.89,17.84 14,18.7V20.77C18,19.86 21,16.28 21,12C21,7.72 18,4.14 14,3.23M16.5,12C16.5,10.23 15.5,8.71 14,7.97V16C15.5,15.29 16.5,13.76 16.5,12M3,9V15H7L12,20V4L7,9H3Z" /></svg>
</svg>
<svg id="mdi:volume-medium">
<svg id="mdi-volume-medium" viewBox="0 0 24 24"><path d="M5,9V15H9L14,20V4L9,9M18.5,12C18.5,10.23 17.5,8.71 16,7.97V16C17.5,15.29 18.5,13.76 18.5,12Z" /></svg>
</svg>
<svg id="mdi:volume-off">
<svg id="mdi-volume-off" viewBox="0 0 24 24"><path d="M12,4L9.91,6.09L12,8.18M4.27,3L3,4.27L7.73,9H3V15H7L12,20V13.27L16.25,17.53C15.58,18.04 14.83,18.46 14,18.7V20.77C15.38,20.45 16.63,19.82 17.68,18.96L19.73,21L21,19.73L12,10.73M19,12C19,12.94 18.8,13.82 18.46,14.64L19.97,16.15C20.62,14.91 21,13.5 21,12C21,7.72 18,4.14 14,3.23V5.29C16.89,6.15 19,8.83 19,12M16.5,12C16.5,10.23 15.5,8.71 14,7.97V10.18L16.45,12.63C16.5,12.43 16.5,12.21 16.5,12Z" /></svg>
</svg>
</defs>
<style>/* inherit to force styles through use tags */
svg path {
    fill: inherit;
}

/* font and background color specifications */
svg.keymap {
    font-family: SFMono-Regular,Consolas,Liberation Mono,Menlo,monospace;
    font-size: 14px;
    font-kerning: normal;
    text-rendering: optimizeLegibility;
    fill: #24292e;
}

/* default key styling */
rect.key {
    fill: #f6f8fa;
}

rect.key, rect.combo {
    stroke: #c9cccf;
    stroke-width: 1;
}

/* default key side styling, only used is draw_key_sides is set */
rect.side {
    filter: brightness(90%);
}

/* color accent for combo boxes */
rect.combo, rect.combo-separate {
    fill: #cdf;
}

/* color accent for held keys */
rect.held, rect.combo.held {
    fill: #fdd;
}

/* color accent for ghost (optional) keys */
rect.ghost, rect.combo.ghost {
    stroke-dasharray: 4, 4;
    stroke-width: 2;
}

text {
    text-anchor: middle;
    dominant-baseline: middle;
}

/* styling for layer labels */
text.label {
    font-weight: bold;
    text-anchor: start;
    stroke: white;
    stroke-width: 4;
    paint-order: stroke;
}

/* styling for optional footer */
text.footer {
    text-anchor: end;
    dominant-baseline: auto;
    stroke: white;
    stroke-width: 4;
    paint-order: stroke;
}

/* styling for combo tap, and key non-tap label text */
text.combo, text.hold, text.shifted, text.left, text.right {
    font-size: 11px;
}

text.hold {
    text-anchor: middle;
    dominant-baseline: auto;
}

text.shifted {
    text-anchor: middle;
    dominant-baseline: hanging;
}

text.left {
    text-anchor: start;
}

text.right {
    text-anchor: end;
}

text.layer-activator {
    text-decoration: underline;
}

/* styling for hold/shifted label text in combo box */
text.combo.hold, text.combo.shifted, text.combo.left, text.combo.right {
    font-size: 8px;
}

/* lighter symbol for transparent keys */
text.trans {
    fill: #7b7e81;
}

/* styling for combo dendrons */
path.combo {
    stroke-width: 1;
    stroke: gray;
    fill: none;
}

/* Start Tabler Icons Cleanup */
/* cannot use height/width with glyphs */
.icon-tabler &gt; path {
    fill: inherit;
    stroke: inherit;
    stroke-width: 2;
}
/* hide tabler's default box */
.icon-tabler &gt; path[stroke="none"][fill="none"] {
    visibility: hidden;
}
/* End Tabler Icons Cleanup */

@media (prefers-color-scheme: dark) {
svg.keymap { fill: #d1d6db; }
rect.key { fill: #3f4750; }
rect.key, rect.combo { stroke: #60666c; }
rect.combo, rect.combo-separate { fill: #1f3d7a; }
rect.held, rect.combo.held { fill: #854747; }
text.label, text.footer { stroke: black; }
text.trans { fill: #7e8184; }
path.combo { stroke: #7f7f7f; }

}
/*
 * merge_layers.py injects corner legends with these CSS classes:
 *   tl = top-left      (--tl layer, e.g. fun)
 *   tr = top-right     (--tr layer, e.g. utility)
 *   bl = bottom-left   (--bl layer, e.g. num)
 *   br = bottom-right  (--br layer, e.g. nav)
 *
 * Element types:
 *   text.tl   - text labels
 *   use.tl    - glyph icons (references defs section)
 *
 * Center layer (--center) uses keymap-drawer's built-in classes:
 *   text.tap, text.hold, text.shifted
 */
/* Merged layer corner position colors */
text.tl, use.tl { fill: #e5c07b; }  /* top-left: function - yellow */
text.tr, use.tr { fill: #61afef; }  /* top-right: utility - blue */
text.bl, use.bl { fill: #98c379; }  /* bottom-left: numbers - green */
text.br, use.br { fill: #c678dd; }  /* bottom-right: nav - purple */
/* Held key text with layer colors */
text.held-tl { fill: #e5c07b; }  /* yellow */
text.held-tr { fill: #61afef; }  /* blue */
text.held-bl { fill: #98c379; }  /* green */
text.held-br { fill: #c678dd; }  /* purple */
/* Modifier keys - inherit default text color */

/* Corner legend styles for merged view */
text.tl {
    text-anchor: start;
    dominant-baseline: hanging;
    font-size: 11px;
    fill: #e5c07b;  /* yellow */
}
text.tr {
    text-anchor: end;
    dominant-baseline: hanging;
    font-size: 11px;
    fill: #61afef;  /* blue */
}
text.bl {
    text-anchor: start;
    dominant-baseline: text-after-edge;
    font-size: 11px;
    fill: #98c379;  /* green */
}
text.br {
    text-anchor: end;
    dominant-baseline: text-after-edge;
    font-size: 11px;
    fill: #c678dd;  /* purple */
}
/* Corner glyph/icon colors */
use.tl, .tl path { fill: #e5c07b; }  /* yellow */
use.tr, .tr path { fill: #61afef; }  /* blue */
use.bl, .bl path { fill: #98c379; }  /* green */
use.br, .br path { fill: #c678dd; }  /* purple */
/* Hidden corner elements (e.g., modifiers) */
.hidden { fill: transparent !important; }
</style>
<g transform="translate(30, 0)" class="layer-merged">
<text x="0" y="15" class="label" id="merged">merged</text>
<g transform="translate(0, 30)">
<g transform="translate(28, 81)" class="key keypos-0">
<rect rx="6" ry="6" x="-26" y="-26" width="52" height="52" class="key" />
<text x="0" y="0" class="key tap">Q</text>

<text x="-26" y="-26" class="tl">F12</text>
<text x="26" y="-26" class="tr">Tab</text>
<text x="26" y="27" class="br">qwerty</text></g>
<g transform="translate(84, 46)" class="key keypos-1">
<rect rx="6" ry="6" x="-26" y="-26" width="52" height="52" class="key" />
<text x="0" y="0" class="key tap">W</text>

<text x="-26" y="-26" class="tl">F7</text>
<text x="-26" y="27" class="bl">7</text>
<text x="26" y="27" class="br">gam</text></g>
<g transform="translate(140, 28)" class="key keypos-2">
<rect rx="6" ry="6" x="-26" y="-26" width="52" height="52" class="key" />
<text x="0" y="0" class="key tap">F</text>

<text x="-26" y="-26" class="tl">F8</text>
<text x="-26" y="27" class="bl">8</text>
<text x="26" y="27" class="br">colemak_dh</text></g>
<g transform="translate(196, 44)" class="key keypos-3">
<rect rx="6" ry="6" x="-26" y="-26" width="52" height="52" class="key" />
<text x="0" y="0" class="key tap">P</text>

<text x="-26" y="-26" class="tl">F9</text>
<text x="-26" y="27" class="bl">9</text>
<text x="26" y="27" class="br">OUT BLE</text></g>
<g transform="translate(252, 52)" class="key keypos-4">
<rect rx="6" ry="6" x="-26" y="-26" width="52" height="52" class="key" />
<text x="0" y="0" class="key tap">B</text>

<text x="-26" y="-26" class="tl">PSCRN</text>
<text x="26" y="27" class="br">OUT USB</text></g>
<g transform="translate(420, 52)" class="key keypos-5">
<rect rx="6" ry="6" x="-26" y="-26" width="52" height="52" class="key" />
<text x="0" y="0" class="key tap">J</text>

<text x="26" y="-26" class="tr">PgUp</text></g>
<g transform="translate(476, 44)" class="key keypos-6">
<rect rx="6" ry="6" x="-26" y="-26" width="52" height="52" class="key" />
<text x="0" y="0" class="key tap">L</text>

<text x="26" y="-26" class="tr">Bspc</text></g>
<g transform="translate(532, 28)" class="key keypos-7">
<rect rx="6" ry="6" x="-26" y="-26" width="52" height="52" class="key" />
<text x="0" y="0" class="key tap">U</text>

<text x="26" y="-26" class="tr">&#8593;</text></g>
<g transform="translate(588, 46)" class="key keypos-8">
<rect rx="6" ry="6" x="-26" y="-26" width="52" height="52" class="key" />
<text x="0" y="0" class="key tap">Y</text>

<text x="26" y="-26" class="tr">Del</text></g>
<g transform="translate(644, 81)" class="key keypos-9">
<rect rx="6" ry="6" x="-26" y="-26" width="52" height="52" class="key" />
<text x="0" y="0" class="key tap">'</text>
</g>
<g transform="translate(28, 137)" class="key mod keypos-10">
<rect rx="6" ry="6" x="-26" y="-26" width="52" height="52" class="key mod" />
<text x="0" y="0" class="key mod tap">A</text>
<text x="0" y="24" class="key mod hold">Shift</text>

<text x="-26" y="-26" class="tl">F11</text>
<text x="26" y="-26" class="tr hidden">Shift</text>
<text x="-26" y="27" class="bl">0</text>
<text x="26" y="27" class="br">BT1</text></g>
<g transform="translate(84, 102)" class="key mod keypos-11">
<rect rx="6" ry="6" x="-26" y="-26" width="52" height="52" class="key mod" />
<text x="0" y="0" class="key mod tap">R</text>
<text x="0" y="24" class="key mod hold">Ctrl</text>

<text x="-26" y="-26" class="tl">F4</text>
<text x="26" y="-26" class="tr hidden">Ctrl</text>
<text x="-26" y="27" class="bl">4</text>
<text x="26" y="27" class="br">BT2</text></g>
<g transform="translate(140, 84)" class="key mod keypos-12">
<rect rx="6" ry="6" x="-26" y="-26" width="52" height="52" class="key mod" />
<text x="0" y="0" class="key mod tap">S</text>
<text x="0" y="24" class="key mod hold">Alt</text>

<text x="-26" y="-26" class="tl">F5</text>
<text x="26" y="-26" class="tr hidden">Alt</text>
<text x="-26" y="27" class="bl">5</text>
<text x="26" y="27" class="br">BT3</text></g>
<g transform="translate(196, 100)" class="key mod keypos-13">
<rect rx="6" ry="6" x="-26" y="-26" width="52" height="52" class="key mod" />
<text x="0" y="0" class="key mod tap">T</text>
<text x="0" y="24" class="key mod hold">Gui</text>

<text x="-26" y="-26" class="tl">F6</text>
<text x="26" y="-26" class="tr hidden">Gui</text>
<text x="-26" y="27" class="bl">6</text>
<text x="26" y="27" class="br">BT4</text></g>
<g transform="translate(252, 108)" class="key keypos-14">
<rect rx="6" ry="6" x="-26" y="-26" width="52" height="52" class="key" />
<text x="0" y="0" class="key tap">G</text>

<text x="-26" y="-26" class="tl">SLCK</text>
<text x="26" y="-26" class="tr">Tab</text>
<text x="26" y="27" class="br">BT</text></g>
<g transform="translate(420, 108)" class="key keypos-15">
<rect rx="6" ry="6" x="-26" y="-26" width="52" height="52" class="key" />
<text x="0" y="0" class="key tap">M</text>

<use href="#mdi:play-pause" xlink:href="#mdi:play-pause" x="-26" y="-26" height="11" width="11" fill="#e5c07b" class="glyph tl" />
<text x="26" y="-26" class="tr">PgDn</text></g>
<g transform="translate(476, 100)" class="key mod keypos-16">
<rect rx="6" ry="6" x="-26" y="-26" width="52" height="52" class="key mod" />
<text x="0" y="0" class="key mod tap">N</text>
<text x="0" y="24" class="key mod hold">Gui</text>

<text x="-26" y="-26" class="tl hidden">Gui</text>
<text x="26" y="-26" class="tr">&#8592;</text></g>
<g transform="translate(532, 84)" class="key mod keypos-17">
<rect rx="6" ry="6" x="-26" y="-26" width="52" height="52" class="key mod" />
<text x="0" y="0" class="key mod tap">E</text>
<text x="0" y="24" class="key mod hold">Alt</text>

<text x="-26" y="-26" class="tl hidden">Alt</text>
<text x="26" y="-26" class="tr">&#8595;</text>
<text x="-26" y="27" class="bl">APP</text></g>
<g transform="translate(588, 102)" class="key mod keypos-18">
<rect rx="6" ry="6" x="-26" y="-26" width="52" height="52" class="key mod" />
<text x="0" y="0" class="key mod tap">I</text>
<text x="0" y="24" class="key mod hold">Ctrl</text>

<text x="-26" y="-26" class="tl hidden">Ctrl</text>
<text x="26" y="-26" class="tr">&#8594;</text>
<text x="-26" y="27" class="bl">&amp;sq_Ck_stickyC</text></g>
<g transform="translate(644, 137)" class="key mod keypos-19">
<rect rx="6" ry="6" x="-26" y="-26" width="52" height="52" class="key mod" />
<text x="0" y="0" class="key mod tap">O</text>
<text x="0" y="24" class="key mod hold">Shift</text>

<text x="-26" y="-26" class="tl hidden">Shift</text>
<text x="26" y="-26" class="tr">Enter</text>
<text x="-26" y="27" class="bl">;</text></g>
<g transform="translate(28, 193)" class="key keypos-20">
<rect rx="6" ry="6" x="-26" y="-26" width="52" height="52" class="key" />
<text x="0" y="0" class="key tap">Z</text>

<text x="-26" y="-26" class="tl">F10</text>
<text x="26" y="27" class="br">BT CLR</text></g>
<g transform="translate(84, 158)" class="key keypos-21">
<rect rx="6" ry="6" x="-26" y="-26" width="52" height="52" class="key" />
<text x="0" y="0" class="key tap">X</text>

<text x="-26" y="-26" class="tl">F1</text>
<text x="-26" y="27" class="bl">1</text></g>
<g transform="translate(140, 140)" class="key keypos-22">
<rect rx="6" ry="6" x="-26" y="-26" width="52" height="52" class="key" />
<text x="0" y="0" class="key tap">C</text>

<text x="-26" y="-26" class="tl">F2</text>
<text x="-26" y="27" class="bl">2</text></g>
<g transform="translate(196, 156)" class="key keypos-23">
<rect rx="6" ry="6" x="-26" y="-26" width="52" height="52" class="key" />
<text x="0" y="0" class="key tap">D</text>

<text x="-26" y="-26" class="tl">F3</text>
<text x="26" y="-26" class="tr hidden">Gui</text>
<text x="-26" y="27" class="bl">3</text>
<text x="26" y="27" class="br">Reset</text></g>
<g transform="translate(252, 164)" class="key keypos-24">
<rect rx="6" ry="6" x="-26" y="-26" width="52" height="52" class="key" />
<text x="0" y="0" class="key tap">V</text>

<use href="#mdi:pause" xlink:href="#mdi:pause" x="-26" y="-26" height="11" width="11" fill="#e5c07b" class="glyph tl" />
<text x="26" y="27" class="br">Boot</text></g>
<g transform="translate(420, 164)" class="key keypos-25">
<rect rx="6" ry="6" x="-26" y="-26" width="52" height="52" class="key" />
<text x="0" y="0" class="key tap">K</text>

<use href="#mdi:skip-backward" xlink:href="#mdi:skip-backward" x="-26" y="-26" height="11" width="11" fill="#e5c07b" class="glyph tl" />
<text x="26" y="-26" class="tr">INSERT</text></g>
<g transform="translate(476, 156)" class="key keypos-26">
<rect rx="6" ry="6" x="-26" y="-26" width="52" height="52" class="key" />
<text x="0" y="0" class="key tap">H</text>

<use href="#mdi:skip-forward" xlink:href="#mdi:skip-forward" x="-26" y="-26" height="11" width="11" fill="#e5c07b" class="glyph tl" />
<text x="26" y="-26" class="tr">Home</text></g>
<g transform="translate(532, 140)" class="key keypos-27">
<rect rx="6" ry="6" x="-26" y="-26" width="52" height="52" class="key" />
<text x="0" y="0" class="key tap">,</text>
<text x="0" y="-24" class="key shifted">;</text>

<use href="#mdi:volume-off" xlink:href="#mdi:volume-off" x="-26" y="-26" height="11" width="11" fill="#e5c07b" class="glyph tl" />
<text x="26" y="-26" class="tr">Tab</text></g>
<g transform="translate(588, 158)" class="key keypos-28">
<rect rx="6" ry="6" x="-26" y="-26" width="52" height="52" class="key" />
<text x="0" y="0" class="key tap">.</text>
<text x="0" y="-24" class="key shifted">:</text>

<use href="#mdi:volume-medium" xlink:href="#mdi:volume-medium" x="-26" y="-26" height="11" width="11" fill="#e5c07b" class="glyph tl" />
<text x="26" y="-26" class="tr">End</text></g>
<g transform="translate(644, 193)" class="key keypos-29">
<rect rx="6" ry="6" x="-26" y="-26" width="52" height="52" class="key" />
<text x="0" y="0" class="key tap">/</text>

<use href="#mdi:volume-high" xlink:href="#mdi:volume-high" x="-26" y="-26" height="11" width="11" fill="#e5c07b" class="glyph tl" /></g>
<g transform="translate(221, 221) rotate(15.0)" class="key keypos-30">
<rect rx="6" ry="6" x="-26" y="-26" width="52" height="52" class="key" />
<text x="0" y="0" class="key tap">nav</text>
<text x="0" y="24" class="key hold">sticky</text>

<text x="-26" y="-26" class="tl">nav</text></g>
<g transform="translate(279, 245) rotate(30.0)" class="key keypos-31">
<rect rx="6" ry="6" x="-26" y="-26" width="52" height="52" class="key" />
<text x="0" y="0" class="key tap">Spc</text>

<text x="-26" y="-26" class="tl">Spc</text></g>
<g transform="translate(393, 245) rotate(-30.0)" class="key keypos-32">
<rect rx="6" ry="6" x="-26" y="-26" width="52" height="52" class="key" />
<text x="0" y="0" class="key tap">Shift</text>
<text x="0" y="24" class="key hold">sticky</text>
<text x="0" y="-24" class="key shifted"><tspan style="font-size: 78%">Caps Word</tspan></text>

<text x="26" y="-26" class="tr">CANCEL</text></g>
<g transform="translate(451, 221) rotate(-15.0)" class="key keypos-33">
<rect rx="6" ry="6" x="-26" y="-26" width="52" height="52" class="key" />
<text x="0" y="0" class="key tap">Numword</text>
<text x="0" y="24" class="key hold">num</text>
<text x="0" y="-24" class="key shifted"><tspan style="font-size: 70%">Sticky Num</tspan></text>

<text x="26" y="-26" class="tr">num</text></g>
</g>
</g>
<text x="702.0" y="328.0" class="footer">hollowhemlock/zmk-config</text><g transform="translate(0,343.0)"><style>/* inherit to force styles through use tags */
svg path {
    fill: inherit;
}

/* font and background color specifications */
svg.keymap {
    font-family: SFMono-Regular,Consolas,Liberation Mono,Menlo,monospace;
    font-size: 14px;
    font-kerning: normal;
    text-rendering: optimizeLegibility;
    fill: #24292e;
}

/* default key styling */
rect.key {
    fill: #f6f8fa;
}

rect.key, rect.combo {
    stroke: #c9cccf;
    stroke-width: 1;
}

/* default key side styling, only used is draw_key_sides is set */
rect.side {
    filter: brightness(90%);
}

/* color accent for combo boxes */
rect.combo, rect.combo-separate {
    fill: #cdf;
}

/* color accent for held keys */
rect.held, rect.combo.held {
    fill: #fdd;
}

/* color accent for ghost (optional) keys */
rect.ghost, rect.combo.ghost {
    stroke-dasharray: 4, 4;
    stroke-width: 2;
}

text {
    text-anchor: middle;
    dominant-baseline: middle;
}

/* styling for layer labels */
text.label {
    font-weight: bold;
    text-anchor: start;
    stroke: white;
    stroke-width: 4;
    paint-order: stroke;
}

/* styling for optional footer */
text.footer {
    text-anchor: end;
    dominant-baseline: auto;
    stroke: white;
    stroke-width: 4;
    paint-order: stroke;
}

/* styling for combo tap, and key non-tap label text */
text.combo, text.hold, text.shifted, text.left, text.right {
    font-size: 11px;
}

text.hold {
    text-anchor: middle;
    dominant-baseline: auto;
}

text.shifted {
    text-anchor: middle;
    dominant-baseline: hanging;
}

text.left {
    text-anchor: start;
}

text.right {
    text-anchor: end;
}

text.layer-activator {
    text-decoration: underline;
}

/* styling for hold/shifted label text in combo box */
text.combo.hold, text.combo.shifted, text.combo.left, text.combo.right {
    font-size: 8px;
}

/* lighter symbol for transparent keys */
text.trans {
    fill: #7b7e81;
}

/* styling for combo dendrons */
path.combo {
    stroke-width: 1;
    stroke: gray;
    fill: none;
}

/* Start Tabler Icons Cleanup */
/* cannot use height/width with glyphs */
.icon-tabler &gt; path {
    fill: inherit;
    stroke: inherit;
    stroke-width: 2;
}
/* hide tabler's default box */
.icon-tabler &gt; path[stroke="none"][fill="none"] {
    visibility: hidden;
}
/* End Tabler Icons Cleanup */

@media (prefers-color-scheme: dark) {
svg.keymap { fill: #d1d6db; }
rect.key { fill: #3f4750; }
rect.key, rect.combo { stroke: #60666c; }
rect.combo, rect.combo-separate { fill: #1f3d7a; }
rect.held, rect.combo.held { fill: #854747; }
text.label, text.footer { stroke: black; }
text.trans { fill: #7e8184; }
path.combo { stroke: #7f7f7f; }

}
/*
 * merge_layers.py injects corner legends with these CSS classes:
 *   tl = top-left      (--tl layer, e.g. fun)
 *   tr = top-right     (--tr layer, e.g. utility)
 *   bl = bottom-left   (--bl layer, e.g. num)
 *   br = bottom-right  (--br layer, e.g. nav)
 *
 * Element types:
 *   text.tl   - text labels
 *   use.tl    - glyph icons (references defs section)
 *
 * Center layer (--center) uses keymap-drawer's built-in classes:
 *   text.tap, text.hold, text.shifted
 */
/* Merged layer corner position colors */
text.tl, use.tl { fill: #e5c07b; }  /* top-left: function - yellow */
text.tr, use.tr { fill: #61afef; }  /* top-right: utility - blue */
text.bl, use.bl { fill: #98c379; }  /* bottom-left: numbers - green */
text.br, use.br { fill: #c678dd; }  /* bottom-right: nav - purple */
/* Held key text with layer colors */
text.held-tl { fill: #e5c07b; }  /* yellow */
text.held-tr { fill: #61afef; }  /* blue */
text.held-bl { fill: #98c379; }  /* green */
text.held-br { fill: #c678dd; }  /* purple */
/* Modifier keys - inherit default text color */
</style>
<g transform="translate(30, 0)" class="layer-MAIN_COMBOS">
<text x="0" y="15" class="label" id="MAIN_COMBOS">MAIN_COMBOS</text>
<g transform="translate(0, 30)">
<g transform="translate(28, 81)" class="key keypos-0">
<rect rx="6" ry="6" x="-26" y="-26" width="52" height="52" class="key" />
</g>
<g transform="translate(84, 46)" class="key keypos-1">
<rect rx="6" ry="6" x="-26" y="-26" width="52" height="52" class="key" />
</g>
<g transform="translate(140, 28)" class="key keypos-2">
<rect rx="6" ry="6" x="-26" y="-26" width="52" height="52" class="key" />
</g>
<g transform="translate(196, 44)" class="key keypos-3">
<rect rx="6" ry="6" x="-26" y="-26" width="52" height="52" class="key" />
</g>
<g transform="translate(252, 52)" class="key keypos-4">
<rect rx="6" ry="6" x="-26" y="-26" width="52" height="52" class="key" />
</g>
<g transform="translate(420, 52)" class="key keypos-5">
<rect rx="6" ry="6" x="-26" y="-26" width="52" height="52" class="key" />
</g>
<g transform="translate(476, 44)" class="key keypos-6">
<rect rx="6" ry="6" x="-26" y="-26" width="52" height="52" class="key" />
</g>
<g transform="translate(532, 28)" class="key keypos-7">
<rect rx="6" ry="6" x="-26" y="-26" width="52" height="52" class="key" />
</g>
<g transform="translate(588, 46)" class="key keypos-8">
<rect rx="6" ry="6" x="-26" y="-26" width="52" height="52" class="key" />
</g>
<g transform="translate(644, 81)" class="key keypos-9">
<rect rx="6" ry="6" x="-26" y="-26" width="52" height="52" class="key" />
</g>
<g transform="translate(28, 137)" class="key keypos-10">
<rect rx="6" ry="6" x="-26" y="-26" width="52" height="52" class="key" />
</g>
<g transform="translate(84, 102)" class="key keypos-11">
<rect rx="6" ry="6" x="-26" y="-26" width="52" height="52" class="key" />
</g>
<g transform="translate(140, 84)" class="key keypos-12">
<rect rx="6" ry="6" x="-26" y="-26" width="52" height="52" class="key" />
</g>
<g transform="translate(196, 100)" class="key keypos-13">
<rect rx="6" ry="6" x="-26" y="-26" width="52" height="52" class="key" />
</g>
<g transform="translate(252, 108)" class="key keypos-14">
<rect rx="6" ry="6" x="-26" y="-26" width="52" height="52" class="key" />
</g>
<g transform="translate(420, 108)" class="key keypos-15">
<rect rx="6" ry="6" x="-26" y="-26" width="52" height="52" class="key" />
</g>
<g transform="translate(476, 100)" class="key keypos-16">
<rect rx="6" ry="6" x="-26" y="-26" width="52" height="52" class="key" />
</g>
<g transform="translate(532, 84)" class="key keypos-17">
<rect rx="6" ry="6" x="-26" y="-26" width="52" height="52" class="key" />
</g>
<g transform="translate(588, 102)" class="key keypos-18">
<rect rx="6" ry="6" x="-26" y="-26" width="52" height="52" class="key" />
</g>
<g transform="translate(644, 137)" class="key keypos-19">
<rect rx="6" ry="6" x="-26" y="-26" width="52" height="52" class="key" />
</g>
<g transform="translate(28, 193)" class="key keypos-20">
<rect rx="6" ry="6" x="-26" y="-26" width="52" height="52" class="key" />
</g>
<g transform="translate(84, 158)" class="key keypos-21">
<rect rx="6" ry="6" x="-26" y="-26" width="52" height="52" class="key" />
</g>
<g transform="translate(140, 140)" class="key keypos-22">
<rect rx="6" ry="6" x="-26" y="-26" width="52" height="52" class="key" />
</g>
<g transform="translate(196, 156)" class="key keypos-23">
<rect rx="6" ry="6" x="-26" y="-26" width="52" height="52" class="key" />
</g>
<g transform="translate(252, 164)" class="key keypos-24">
<rect rx="6" ry="6" x="-26" y="-26" width="52" height="52" class="key" />
</g>
<g transform="translate(420, 164)" class="key keypos-25">
<rect rx="6" ry="6" x="-26" y="-26" width="52" height="52" class="key" />
</g>
<g transform="translate(476, 156)" class="key keypos-26">
<rect rx="6" ry="6" x="-26" y="-26" width="52" height="52" class="key" />
</g>
<g transform="translate(532, 140)" class="key keypos-27">
<rect rx="6" ry="6" x="-26" y="-26" width="52" height="52" class="key" />
</g>
<g transform="translate(588, 158)" class="key keypos-28">
<rect rx="6" ry="6" x="-26" y="-26" width="52" height="52" class="key" />
</g>
<g transform="translate(644, 193)" class="key keypos-29">
<rect rx="6" ry="6" x="-26" y="-26" width="52" height="52" class="key" />
</g>
<g transform="translate(221, 221) rotate(15.0)" class="key keypos-30">
<rect rx="6" ry="6" x="-26" y="-26" width="52" height="52" class="key" />
</g>
<g transform="translate(279, 245) rotate(30.0)" class="key keypos-31">
<rect rx="6" ry="6" x="-26" y="-26" width="52" height="52" class="key" />
</g>
<g transform="translate(393, 245) rotate(-30.0)" class="key keypos-32">
<rect rx="6" ry="6" x="-26" y="-26" width="52" height="52" class="key" />
</g>
<g transform="translate(451, 221) rotate(-15.0)" class="key keypos-33">
<rect rx="6" ry="6" x="-26" y="-26" width="52" height="52" class="key" />
</g>
<g class="combo combopos-0">
<rect rx="6" ry="6" x="98" y="24" width="28" height="26" class="combo" />
<text x="112" y="37" class="combo tap"><tspan style="font-size: 64%">&amp;key_repeat</tspan></text>
</g>
<g class="combo combopos-1">
<rect rx="6" ry="6" x="98" y="24" width="28" height="26" class="combo" />
<text x="112" y="37" class="combo tap"><tspan style="font-size: 64%">&amp;key_repeat</tspan></text>
</g>
<g class="combo combopos-2">
<rect rx="6" ry="6" x="98" y="24" width="28" height="26" class="combo" />
<text x="112" y="37" class="combo tap"><tspan style="font-size: 64%">&amp;key_repeat</tspan></text>
</g>
<g class="combo combopos-3">
<rect rx="6" ry="6" x="98" y="24" width="28" height="26" class="combo" />
<text x="112" y="37" class="combo tap"><tspan style="font-size: 64%">&amp;key_repeat</tspan></text>
</g>
<g class="combo combopos-4">
<rect rx="6" ry="6" x="154" y="23" width="28" height="26" class="combo" />
<text x="168" y="36" class="combo tap">Tab</text>
</g>
<g class="combo combopos-5">
<rect rx="6" ry="6" x="154" y="23" width="28" height="26" class="combo" />
<text x="168" y="36" class="combo tap">Tab</text>
</g>
<g class="combo combopos-6">
<rect rx="6" ry="6" x="154" y="23" width="28" height="26" class="combo" />
<text x="168" y="36" class="combo tap">Tab</text>
</g>
<g class="combo combopos-7">
<rect rx="6" ry="6" x="154" y="23" width="28" height="26" class="combo" />
<text x="168" y="36" class="combo tap">Tab</text>
</g>
<g class="combo combopos-8">
<rect rx="6" ry="6" x="98" y="80" width="28" height="26" class="combo" />
<text x="112" y="93" class="combo tap">Esc</text>
<text x="112" y="104" class="combo hold"><tspan style="font-size: 88%">Alt+Ctrl</tspan></text>
</g>
<g class="combo combopos-9">
<rect rx="6" ry="6" x="98" y="80" width="28" height="26" class="combo" />
<text x="112" y="93" class="combo tap">Esc</text>
<text x="112" y="104" class="combo hold"><tspan style="font-size: 88%">Alt+Ctrl</tspan></text>
</g>
<g class="combo combopos-10">
<rect rx="6" ry="6" x="98" y="80" width="28" height="26" class="combo" />
<text x="112" y="93" class="combo tap">Esc</text>
<text x="112" y="104" class="combo hold"><tspan style="font-size: 88%">Alt+Ctrl</tspan></text>
</g>
<g class="combo combopos-11">
<rect rx="6" ry="6" x="98" y="80" width="28" height="26" class="combo" />
<text x="112" y="93" class="combo tap">Esc</text>
<text x="112" y="104" class="combo hold"><tspan style="font-size: 88%">Alt+Ctrl</tspan></text>
</g>
<g class="combo combopos-12">
<rect rx="6" ry="6" x="154" y="79" width="28" height="26" class="combo" />
<text x="168" y="92" class="combo tap">ENTER</text>
<text x="168" y="103" class="combo hold">Alt+Gui</text>
</g>
<g class="combo combopos-13">
<rect rx="6" ry="6" x="154" y="79" width="28" height="26" class="combo" />
<text x="168" y="92" class="combo tap">ENTER</text>
<text x="168" y="103" class="combo hold">Alt+Gui</text>
</g>
<g class="combo combopos-14">
<rect rx="6" ry="6" x="154" y="79" width="28" height="26" class="combo" />
<text x="168" y="92" class="combo tap">ENTER</text>
<text x="168" y="103" class="combo hold">Alt+Gui</text>
</g>
<g class="combo combopos-15">
<rect rx="6" ry="6" x="154" y="79" width="28" height="26" class="combo" />
<text x="168" y="92" class="combo tap">ENTER</text>
<text x="168" y="103" class="combo hold">Alt+Gui</text>
</g>
<g class="combo combopos-16">
<path d="M140,157 l-37,1" class="combo" />
<path d="M140,157 l37,-1" class="combo" />
<rect rx="6" ry="6" x="126" y="144" width="28" height="26" class="combo" />
<text x="140" y="157" class="combo tap">Cut</text>
</g>
<g class="combo combopos-17">
<path d="M140,157 l-37,1" class="combo" />
<path d="M140,157 l37,-1" class="combo" />
<rect rx="6" ry="6" x="126" y="144" width="28" height="26" class="combo" />
<text x="140" y="157" class="combo tap">Cut</text>
</g>
<g class="combo combopos-18">
<path d="M140,157 l-37,1" class="combo" />
<path d="M140,157 l37,-1" class="combo" />
<rect rx="6" ry="6" x="126" y="144" width="28" height="26" class="combo" />
<text x="140" y="157" class="combo tap">Cut</text>
</g>
<g class="combo combopos-19">
<path d="M140,157 l-37,1" class="combo" />
<path d="M140,157 l37,-1" class="combo" />
<rect rx="6" ry="6" x="126" y="144" width="28" height="26" class="combo" />
<text x="140" y="157" class="combo tap">Cut</text>
</g>
<g class="combo combopos-20">
<rect rx="6" ry="6" x="98" y="136" width="28" height="26" class="combo" />
<text x="112" y="149" class="combo tap">Copy</text>
</g>
<g class="combo combopos-21">
<rect rx="6" ry="6" x="98" y="136" width="28" height="26" class="combo" />
<text x="112" y="149" class="combo tap">Copy</text>
</g>
<g class="combo combopos-22">
<rect rx="6" ry="6" x="98" y="136" width="28" height="26" class="combo" />
<text x="112" y="149" class="combo tap">Copy</text>
</g>
<g class="combo combopos-23">
<rect rx="6" ry="6" x="98" y="136" width="28" height="26" class="combo" />
<text x="112" y="149" class="combo tap">Copy</text>
</g>
<g class="combo combopos-24">
<rect rx="6" ry="6" x="154" y="135" width="28" height="26" class="combo" />
<text x="168" y="148" class="combo tap">Paste</text>
</g>
<g class="combo combopos-25">
<rect rx="6" ry="6" x="154" y="135" width="28" height="26" class="combo" />
<text x="168" y="148" class="combo tap">Paste</text>
</g>
<g class="combo combopos-26">
<rect rx="6" ry="6" x="154" y="135" width="28" height="26" class="combo" />
<text x="168" y="148" class="combo tap">Paste</text>
</g>
<g class="combo combopos-27">
<rect rx="6" ry="6" x="154" y="135" width="28" height="26" class="combo" />
<text x="168" y="148" class="combo tap">Paste</text>
</g>
<g class="combo combopos-28">
<rect rx="6" ry="6" x="490" y="79" width="28" height="26" class="combo" />
<text x="504" y="92" class="combo tap">(</text>
<text x="504" y="103" class="combo hold"><tspan style="font-size: 78%">AltGr+Gui</tspan></text>
</g>
<g class="combo combopos-29">
<rect rx="6" ry="6" x="490" y="79" width="28" height="26" class="combo" />
<text x="504" y="92" class="combo tap">(</text>
<text x="504" y="103" class="combo hold"><tspan style="font-size: 78%">AltGr+Gui</tspan></text>
</g>
<g class="combo combopos-30">
<rect rx="6" ry="6" x="490" y="79" width="28" height="26" class="combo" />
<text x="504" y="92" class="combo tap">(</text>
<text x="504" y="103" class="combo hold"><tspan style="font-size: 78%">AltGr+Gui</tspan></text>
</g>
<g class="combo combopos-31">
<rect rx="6" ry="6" x="546" y="80" width="28" height="26" class="combo" />
<text x="560" y="93" class="combo tap">)</text>
<text x="560" y="104" class="combo hold"><tspan style="font-size: 70%">AltGr+Ctrl</tspan></text>
</g>
<g class="combo combopos-32">
<rect rx="6" ry="6" x="546" y="80" width="28" height="26" class="combo" />
<text x="560" y="93" class="combo tap">)</text>
<text x="560" y="104" class="combo hold"><tspan style="font-size: 70%">AltGr+Ctrl</tspan></text>
</g>
<g class="combo combopos-33">
<rect rx="6" ry="6" x="546" y="80" width="28" height="26" class="combo" />
<text x="560" y="93" class="combo tap">)</text>
<text x="560" y="104" class="combo hold"><tspan style="font-size: 70%">AltGr+Ctrl</tspan></text>
</g>
<g class="combo combopos-34">
<rect rx="6" ry="6" x="490" y="79" width="28" height="26" class="combo" />
<text x="504" y="92" class="combo tap">&lt;</text>
</g>
<g class="combo combopos-35">
<rect rx="6" ry="6" x="546" y="80" width="28" height="26" class="combo" />
<text x="560" y="93" class="combo tap">&gt;</text>
</g>
<g class="combo combopos-36">
<rect rx="6" ry="6" x="490" y="135" width="28" height="26" class="combo" />
<text x="504" y="148" class="combo tap">[</text>
<text x="516" y="148" class="combo right">{</text>
</g>
<g class="combo combopos-37">
<rect rx="6" ry="6" x="490" y="135" width="28" height="26" class="combo" />
<text x="504" y="148" class="combo tap">[</text>
<text x="516" y="148" class="combo right">{</text>
</g>
<g class="combo combopos-38">
<rect rx="6" ry="6" x="490" y="135" width="28" height="26" class="combo" />
<text x="504" y="148" class="combo tap">[</text>
<text x="516" y="148" class="combo right">{</text>
</g>
<g class="combo combopos-39">
<rect rx="6" ry="6" x="546" y="136" width="28" height="26" class="combo" />
<text x="560" y="149" class="combo tap">]</text>
<text x="572" y="149" class="combo right">}</text>
</g>
<g class="combo combopos-40">
<rect rx="6" ry="6" x="546" y="136" width="28" height="26" class="combo" />
<text x="560" y="149" class="combo tap">]</text>
<text x="572" y="149" class="combo right">}</text>
</g>
<g class="combo combopos-41">
<rect rx="6" ry="6" x="546" y="136" width="28" height="26" class="combo" />
<text x="560" y="149" class="combo tap">]</text>
<text x="572" y="149" class="combo right">}</text>
</g>
<g class="combo combopos-42">
<rect rx="6" ry="6" x="490" y="135" width="28" height="26" class="combo" />
<text x="504" y="148" class="combo tap">{</text>
</g>
<g class="combo combopos-43">
<rect rx="6" ry="6" x="546" y="136" width="28" height="26" class="combo" />
<text x="560" y="149" class="combo tap">}</text>
</g>
<g class="combo combopos-44">
<rect rx="6" ry="6" x="408" y="220" width="28" height="26" class="combo" />
<text x="422" y="233" class="combo tap">fun</text>
<text x="422" y="244" class="combo hold">sticky</text>
</g>
<g class="combo combopos-45">
<rect rx="6" ry="6" x="408" y="220" width="28" height="26" class="combo" />
<text x="422" y="233" class="combo tap">fun</text>
<text x="422" y="244" class="combo hold">sticky</text>
</g>
<g class="combo combopos-46">
<rect rx="6" ry="6" x="408" y="220" width="28" height="26" class="combo" />
<text x="422" y="233" class="combo tap">fun</text>
<text x="422" y="244" class="combo hold">sticky</text>
</g>
<g class="combo combopos-47">
<rect rx="6" ry="6" x="70" y="61" width="28" height="26" class="combo" />
<text x="84" y="74" class="combo tap">@</text>
</g>
<g class="combo combopos-48">
<rect rx="6" ry="6" x="70" y="61" width="28" height="26" class="combo" />
<text x="84" y="74" class="combo tap">@</text>
</g>
<g class="combo combopos-49">
<rect rx="6" ry="6" x="70" y="61" width="28" height="26" class="combo" />
<text x="84" y="74" class="combo tap">@</text>
</g>
<g class="combo combopos-50">
<rect rx="6" ry="6" x="70" y="61" width="28" height="26" class="combo" />
<text x="84" y="74" class="combo tap">@</text>
</g>
<g class="combo combopos-51">
<rect rx="6" ry="6" x="126" y="43" width="28" height="26" class="combo" />
<text x="140" y="56" class="combo tap">#</text>
</g>
<g class="combo combopos-52">
<rect rx="6" ry="6" x="126" y="43" width="28" height="26" class="combo" />
<text x="140" y="56" class="combo tap">#</text>
</g>
<g class="combo combopos-53">
<rect rx="6" ry="6" x="126" y="43" width="28" height="26" class="combo" />
<text x="140" y="56" class="combo tap">#</text>
</g>
<g class="combo combopos-54">
<rect rx="6" ry="6" x="126" y="43" width="28" height="26" class="combo" />
<text x="140" y="56" class="combo tap">#</text>
</g>
<g class="combo combopos-55">
<rect rx="6" ry="6" x="182" y="59" width="28" height="26" class="combo" />
<text x="196" y="72" class="combo tap">$</text>
</g>
<g class="combo combopos-56">
<rect rx="6" ry="6" x="182" y="59" width="28" height="26" class="combo" />
<text x="196" y="72" class="combo tap">$</text>
</g>
<g class="combo combopos-57">
<rect rx="6" ry="6" x="182" y="59" width="28" height="26" class="combo" />
<text x="196" y="72" class="combo tap">$</text>
</g>
<g class="combo combopos-58">
<rect rx="6" ry="6" x="182" y="59" width="28" height="26" class="combo" />
<text x="196" y="72" class="combo tap">$</text>
</g>
<g class="combo combopos-59">
<rect rx="6" ry="6" x="238" y="67" width="28" height="26" class="combo" />
<text x="252" y="80" class="combo tap">%</text>
</g>
<g class="combo combopos-60">
<rect rx="6" ry="6" x="238" y="67" width="28" height="26" class="combo" />
<text x="252" y="80" class="combo tap">%</text>
</g>
<g class="combo combopos-61">
<rect rx="6" ry="6" x="238" y="67" width="28" height="26" class="combo" />
<text x="252" y="80" class="combo tap">%</text>
</g>
<g class="combo combopos-62">
<rect rx="6" ry="6" x="238" y="67" width="28" height="26" class="combo" />
<text x="252" y="80" class="combo tap">%</text>
</g>
<g class="combo combopos-63">
<rect rx="6" ry="6" x="406" y="67" width="28" height="26" class="combo" />
<text x="420" y="80" class="combo tap">^</text>
</g>
<g class="combo combopos-64">
<rect rx="6" ry="6" x="406" y="67" width="28" height="26" class="combo" />
<text x="420" y="80" class="combo tap">^</text>
</g>
<g class="combo combopos-65">
<rect rx="6" ry="6" x="406" y="67" width="28" height="26" class="combo" />
<text x="420" y="80" class="combo tap">^</text>
</g>
<g class="combo combopos-66">
<rect rx="6" ry="6" x="406" y="67" width="28" height="26" class="combo" />
<text x="420" y="80" class="combo tap">^</text>
</g>
<g class="combo combopos-67">
<rect rx="6" ry="6" x="462" y="59" width="28" height="26" class="combo" />
<text x="476" y="72" class="combo tap">+</text>
</g>
<g class="combo combopos-68">
<rect rx="6" ry="6" x="462" y="59" width="28" height="26" class="combo" />
<text x="476" y="72" class="combo tap">+</text>
</g>
<g class="combo combopos-69">
<rect rx="6" ry="6" x="462" y="59" width="28" height="26" class="combo" />
<text x="476" y="72" class="combo tap">+</text>
</g>
<g class="combo combopos-70">
<rect rx="6" ry="6" x="462" y="59" width="28" height="26" class="combo" />
<text x="476" y="72" class="combo tap">+</text>
</g>
<g class="combo combopos-71">
<rect rx="6" ry="6" x="518" y="43" width="28" height="26" class="combo" />
<text x="532" y="56" class="combo tap">*</text>
</g>
<g class="combo combopos-72">
<rect rx="6" ry="6" x="518" y="43" width="28" height="26" class="combo" />
<text x="532" y="56" class="combo tap">*</text>
</g>
<g class="combo combopos-73">
<rect rx="6" ry="6" x="518" y="43" width="28" height="26" class="combo" />
<text x="532" y="56" class="combo tap">*</text>
</g>
<g class="combo combopos-74">
<rect rx="6" ry="6" x="518" y="43" width="28" height="26" class="combo" />
<text x="532" y="56" class="combo tap">*</text>
</g>
<g class="combo combopos-75">
<rect rx="6" ry="6" x="574" y="61" width="28" height="26" class="combo" />
<text x="588" y="74" class="combo tap">&amp;</text>
</g>
<g class="combo combopos-76">
<rect rx="6" ry="6" x="574" y="61" width="28" height="26" class="combo" />
<text x="588" y="74" class="combo tap">&amp;</text>
</g>
<g class="combo combopos-77">
<rect rx="6" ry="6" x="574" y="61" width="28" height="26" class="combo" />
<text x="588" y="74" class="combo tap">&amp;</text>
</g>
<g class="combo combopos-78">
<rect rx="6" ry="6" x="574" y="61" width="28" height="26" class="combo" />
<text x="588" y="74" class="combo tap">&amp;</text>
</g>
<g class="combo combopos-79">
<rect rx="6" ry="6" x="70" y="117" width="28" height="26" class="combo" />
<text x="84" y="130" class="combo tap">`</text>
</g>
<g class="combo combopos-80">
<rect rx="6" ry="6" x="70" y="117" width="28" height="26" class="combo" />
<text x="84" y="130" class="combo tap">`</text>
</g>
<g class="combo combopos-81">
<rect rx="6" ry="6" x="70" y="117" width="28" height="26" class="combo" />
<text x="84" y="130" class="combo tap">`</text>
</g>
<g class="combo combopos-82">
<rect rx="6" ry="6" x="70" y="117" width="28" height="26" class="combo" />
<text x="84" y="130" class="combo tap">`</text>
</g>
<g class="combo combopos-83">
<rect rx="6" ry="6" x="126" y="99" width="28" height="26" class="combo" />
<text x="140" y="112" class="combo tap">\</text>
</g>
<g class="combo combopos-84">
<rect rx="6" ry="6" x="126" y="99" width="28" height="26" class="combo" />
<text x="140" y="112" class="combo tap">\</text>
</g>
<g class="combo combopos-85">
<rect rx="6" ry="6" x="126" y="99" width="28" height="26" class="combo" />
<text x="140" y="112" class="combo tap">\</text>
</g>
<g class="combo combopos-86">
<rect rx="6" ry="6" x="126" y="99" width="28" height="26" class="combo" />
<text x="140" y="112" class="combo tap">\</text>
</g>
<g class="combo combopos-87">
<rect rx="6" ry="6" x="182" y="115" width="28" height="26" class="combo" />
<text x="196" y="128" class="combo tap">=</text>
</g>
<g class="combo combopos-88">
<rect rx="6" ry="6" x="182" y="115" width="28" height="26" class="combo" />
<text x="196" y="128" class="combo tap">=</text>
</g>
<g class="combo combopos-89">
<rect rx="6" ry="6" x="182" y="115" width="28" height="26" class="combo" />
<text x="196" y="128" class="combo tap">=</text>
</g>
<g class="combo combopos-90">
<rect rx="6" ry="6" x="182" y="115" width="28" height="26" class="combo" />
<text x="196" y="128" class="combo tap">=</text>
</g>
<g class="combo combopos-91">
<rect rx="6" ry="6" x="238" y="123" width="28" height="26" class="combo" />
<text x="252" y="136" class="combo tap">~</text>
</g>
<g class="combo combopos-92">
<rect rx="6" ry="6" x="238" y="123" width="28" height="26" class="combo" />
<text x="252" y="136" class="combo tap">~</text>
</g>
<g class="combo combopos-93">
<rect rx="6" ry="6" x="238" y="123" width="28" height="26" class="combo" />
<text x="252" y="136" class="combo tap">~</text>
</g>
<g class="combo combopos-94">
<rect rx="6" ry="6" x="238" y="123" width="28" height="26" class="combo" />
<text x="252" y="136" class="combo tap">~</text>
</g>
<g class="combo combopos-95">
<rect rx="6" ry="6" x="406" y="123" width="28" height="26" class="combo" />
<text x="420" y="136" class="combo tap">_</text>
</g>
<g class="combo combopos-96">
<rect rx="6" ry="6" x="406" y="123" width="28" height="26" class="combo" />
<text x="420" y="136" class="combo tap">_</text>
</g>
<g class="combo combopos-97">
<rect rx="6" ry="6" x="406" y="123" width="28" height="26" class="combo" />
<text x="420" y="136" class="combo tap">_</text>
</g>
<g class="combo combopos-98">
<rect rx="6" ry="6" x="406" y="123" width="28" height="26" class="combo" />
<text x="420" y="136" class="combo tap">_</text>
</g>
<g class="combo combopos-99">
<rect rx="6" ry="6" x="462" y="115" width="28" height="26" class="combo" />
<text x="476" y="128" class="combo tap">-</text>
</g>
<g class="combo combopos-100">
<rect rx="6" ry="6" x="462" y="115" width="28" height="26" class="combo" />
<text x="476" y="128" class="combo tap">-</text>
</g>
<g class="combo combopos-101">
<rect rx="6" ry="6" x="462" y="115" width="28" height="26" class="combo" />
<text x="476" y="128" class="combo tap">-</text>
</g>
<g class="combo combopos-102">
<rect rx="6" ry="6" x="462" y="115" width="28" height="26" class="combo" />
<text x="476" y="128" class="combo tap">-</text>
</g>
<g class="combo combopos-103">
<rect rx="6" ry="6" x="518" y="99" width="28" height="26" class="combo" />
<text x="532" y="112" class="combo tap">!</text>
</g>
<g class="combo combopos-104">
<rect rx="6" ry="6" x="518" y="99" width="28" height="26" class="combo" />
<text x="532" y="112" class="combo tap">!</text>
</g>
<g class="combo combopos-105">
<rect rx="6" ry="6" x="518" y="99" width="28" height="26" class="combo" />
<text x="532" y="112" class="combo tap">!</text>
</g>
<g class="combo combopos-106">
<rect rx="6" ry="6" x="518" y="99" width="28" height="26" class="combo" />
<text x="532" y="112" class="combo tap">!</text>
</g>
<g class="combo combopos-107">
<rect rx="6" ry="6" x="574" y="117" width="28" height="26" class="combo" />
<text x="588" y="130" class="combo tap">|</text>
</g>
<g class="combo combopos-108">
<rect rx="6" ry="6" x="574" y="117" width="28" height="26" class="combo" />
<text x="588" y="130" class="combo tap">|</text>
</g>
<g class="combo combopos-109">
<rect rx="6" ry="6" x="574" y="117" width="28" height="26" class="combo" />
<text x="588" y="130" class="combo tap">|</text>
</g>
<g class="combo combopos-110">
<rect rx="6" ry="6" x="574" y="117" width="28" height="26" class="combo" />
<text x="588" y="130" class="combo tap">|</text>
</g>
</g>
</g>
<text x="702.0" y="328.0" class="footer">hollowhemlock/zmk-config</text></g></svg>